<svg width="161" height="44" viewBox="0 0 161 44" xmlns="http://www.w3.org/2000/svg"><title>bottom leaves</title><g fill="none" fill-rule="evenodd"><path d="M118.461 40.756c-.518-.352-1.313-.792-2.524-1.282-3.021-1.22-7.152-.614-7.152-.614s-.034 2.48 2.628 3.44c2.662.961 5.02 1.145 5.507 1.008-.872-.91-.72-1.517-.72-1.517s2.784-.146 3.003.026c.218.172.032-.535-.742-1.06zm31.819-11.269c.535.325 1.353.723 2.588 1.149 3.08 1.06 7.174.238 7.174.238s-.096-2.477-2.805-3.298c-2.709-.82-5.073-.88-5.552-.717.919.863.8 1.477.8 1.477s-2.774.292-3.001.131c-.227-.16-.005.536.795 1.02zM131.566 4.99c-.495.385-1.16 1.005-2 2.006-2.094 2.496-2.793 6.612-2.793 6.612s2.347.798 4.083-1.437c1.737-2.235 2.64-4.42 2.66-4.926-1.135.549-1.665.217-1.665.217s.721-2.694.952-2.848c.232-.155-.498-.196-1.237.377zm-33.906.716c.116-.315.242-.785.34-1.478.242-1.727-.608-3.794-.608-3.794S96.1.738 95.945 2.245c-.154 1.507.056 2.756.19 2.99.36-.57.695-.57.695-.57s.436 1.427.375 1.563c-.06.136.282-.052.455-.522zm-75.876 8.953c-.335.016-.817.084-1.492.265-1.685.452-3.255 2.042-3.255 2.042s.784 1.07 2.232.624c1.447-.447 2.514-1.128 2.678-1.344-.666-.108-.796-.416-.796-.416s1.143-.96 1.292-.956c.148.003-.159-.24-.659-.215z" fill="#F7BED8"/><path d="M9.676 25.75c-.109-.444-.325-1.07-.743-1.928-1.042-2.136-3.578-3.824-3.578-3.824s-1.229 1.328-.255 3.148c.975 1.821 2.164 3.072 2.495 3.235-.029-.919.35-1.174.35-1.174s1.581 1.28 1.615 1.48c.035.2.28-.274.116-.937z" fill="#EF70A8"/><path d="M107.417 23.304c-.154.607-.296 1.505-.342 2.811-.113 3.256 1.87 6.93 1.87 6.93s2.341-.816 2.334-3.646c-.008-2.83-.642-5.109-.938-5.52-.556 1.131-1.179 1.197-1.179 1.197s-1.09-2.567-1.002-2.831c.087-.264-.514.152-.743 1.059zm-16.813-8.19c-.33.112-.794.319-1.419.694-1.557.936-2.673 2.979-2.673 2.979s1.093.847 2.414-.016c1.322-.863 2.195-1.852 2.297-2.115-.698.084-.918-.188-.918-.188s.87-1.289 1.02-1.328c.15-.04-.228-.194-.721-.026zm-28.139-5.065c0 .175.021.429.097.786.19.892.977 1.756.977 1.756s.58-.38.387-1.149c-.194-.768-.52-1.344-.628-1.435-.075.345-.24.405-.24.405s-.469-.624-.463-.701c.006-.078-.13.076-.13.338z" fill="#ED77AA"/><path d="M59.22 40.03c-.266-.176-.674-.397-1.295-.642-1.55-.612-3.667-.31-3.667-.31s-.016 1.24 1.349 1.721c1.365.482 2.574.575 2.823.506-.447-.455-.37-.759-.37-.759s1.428-.072 1.54.015c.112.086.016-.268-.38-.531zm16.305-5.618c.275.163.694.362 1.327.574 1.58.53 3.678.118 3.678.118s-.049-1.24-1.437-1.649c-1.389-.41-2.6-.439-2.846-.357.47.431.409.738.409.738s-1.422.147-1.538.066c-.117-.08-.003.268.407.51zM65.929 22.1c-.25.198-.586.517-1.011 1.033-1.06 1.284-1.428 3.39-1.428 3.39s1.174.4 2.054-.75c.88-1.15 1.342-2.27 1.353-2.53-.57.286-.836.118-.836.118s.373-1.38.49-1.46c.116-.08-.25-.098-.622.198zm-17.292.428a3.76 3.76 0 0 0 .166-.756c.117-.884-.314-1.945-.314-1.945s-.646.153-.719.924c-.073.771.035 1.411.103 1.532.178-.291.346-.29.346-.29s.222.732.192.8c-.03.07.141-.025.226-.265zm-39.05 4.39a3.76 3.76 0 0 0-.76.143c-.86.237-1.668 1.048-1.668 1.048s.393.535 1.131.302c.74-.234 1.286-.584 1.37-.694-.338-.05-.402-.205-.402-.205s.587-.49.662-.49c.076.001-.079-.12-.333-.104z" fill="#F7BED8"/><path d="M3.451 32.506a5.126 5.126 0 0 0-.388-.98c-.542-1.088-1.837-1.958-1.837-1.958s-.614.664-.109 1.592c.505.927 1.115 1.568 1.284 1.653-.02-.466.17-.593.17-.593s.809.659.828.76c.018.101.139-.137.052-.474z" fill="#EF70A8"/><path d="M53.557 31.246c-.075.31-.143.769-.16 1.437-.046 1.664.962 3.551.962 3.551s1.17-.409 1.156-1.856c-.014-1.448-.34-2.615-.49-2.826-.275.576-.587.607-.587.607s-.555-1.317-.513-1.452c.043-.134-.257.076-.368.54zm-8.701-4.077a3.905 3.905 0 0 0-.721.36c-.792.485-1.368 1.53-1.368 1.53s.546.423 1.219-.024c.672-.446 1.12-.953 1.173-1.087-.353.046-.462-.09-.462-.09s.447-.66.523-.68c.075-.022-.114-.098-.364-.01zm-14.421-2.584a1.78 1.78 0 0 0 .003.433c.052.485.486.909.486.909s.397-.257.332-.673c-.064-.415-.228-.713-.29-.756-.073.199-.181.245-.181.245s-.251-.314-.241-.358c.009-.043-.088.053-.109.2z" fill="#ED77AA"/></g></svg>