<svg width="162" height="186" viewBox="0 0 162 186" xmlns="http://www.w3.org/2000/svg"><title>snowman</title><defs><linearGradient x1="24.115%" y1="87.919%" x2="50%" y2="26.547%" id="a"><stop stop-color="#FAFAFA" offset="0%"/><stop stop-color="#FFF" offset="100%"/></linearGradient></defs><g transform="translate(-1)" fill="none" fill-rule="evenodd"><path d="M56.416 182.263c32.815 4.612 58.77 2.46 59.116 0 .307-2.18-8.219-.16-35.735-4.42-3.55-.55-25.49-4.526-29.24-5.053-32.815-4.612-48.624-6.51-48.97-4.05-.346 2.461 22.014 8.911 54.83 13.523z" fill="#F0F0F0" opacity=".803"/><path d="M80.407 185c11.445 1.147 35.127 1.566 35.127-1.472 0-3.037-15.742-7.325-32.034-7.325-16.292 0-32.875-3.037-32.875 0 0 3.038 18.338 7.65 29.782 8.797z" fill="#C2C2C2" opacity=".504"/><circle fill="url(#a)" cx="101" cy="124" r="62"/><circle fill="url(#a)" cx="90" cy="52" r="29"/><path d="M107.363 48.68h34.702l-34.702 10.974s-5.215-2.77-4.053-7.238c1.16-4.468 4.053-3.736 4.053-3.736z" fill="#FE4C4C"/><circle fill="#4F4F4F" cx="90" cy="46" r="3"/><circle fill="#4F4F4F" cx="105.5" cy="41.5" r="2.5"/><path fill="#2C2C2C" d="M58.229 39.338l1.808 3.587 38.376-21.502-2.98-3.22-5.555 3.22L71.548 0 55 8.493l9.023 26.202z"/></g></svg>