<svg width="691" height="391" viewBox="0 0 691 391" xmlns="http://www.w3.org/2000/svg" xmlns:xlink="http://www.w3.org/1999/xlink"><title>Group 4</title><defs><path d="M44.65 19.036c.682.39 1.317.736 1.746.88-.257-.798.355-1.5.65-2.207.295-.707 1.972-2.427 2.591-3.5.62-1.073.17-1.74.907-1.74.75.068.428 1.783.124 2.813-.305 1.029-2.16 3.66-2.16 3.66s1.426-.8 2.036-1.292c.61-.49 1.387-1.287 1.387-.312 0 .974-3.49 2.623-3.883 3.503-.308.688.106 1.982.302 2.514 2.308.095 4.052.525 6.152 1.736 2.437 1.404 6.129 1.243 7.073.717.944-.525.06 3.045-2.16 4.122s-5.833.585-6.4 1.754c-.569 1.17 2.233 4.573 2.833 8.816.599 4.244-2.03 9.106-2.03 9.106s7.808-3.087 9.901-2.067c2.093 1.019 1.218 5.61-.57 8.613-1.787 3.003-2.722 4.802-3.734 4.802-.965.911-2.768 2.945-3.567 3.803-.8.859-1.737-3.52-.391-4.072 1.346-.553 1.967-1.035 1.967-1.035s-.652-.515.043-1.573c.696-1.058 1.542-2.5 2.718-4.001 1.177-1.502 1.181-2.977 1.39-3.474-.71-.41-7.13 3.545-8.56 4.062-1.432.516-4.508.175-5.965-.585-1.344-.114-.308 2.56-15.298 4.308-.841 2.6-3.522 5.732-5.432 6.37-1.85.5-5.046 1.183-6.736 3.198-.206 2.554.446 7.365 0 9.181-.532.753-2.693 1.638-2.693 1.638l-3.83-.591s2.263-2.578 3.046-2.578c.784 0 0-10.848 0-10.848s4.601-3.388 5.579-4.474c0-1.2-1.853-4.788-.907-7.52-.563-.288-3.292.632-4.672-.724-1.38-1.356-2.681-2.282-1.87-5.312.977 1.08 1.256 1.093 3.406 1.69 3.566.969 3.136 2.185 3.136 2.185s2.074-3.227 9.721-3.383c7.648-.156 9.599-1.714 12.009-5.296 2.41-3.582 4.742-5.317.718-13.885-2.17 1.805-4.72 1.281-6.848.64 1.42-.64 1.146-1.269 2.824-1.863 1.677-.595 3.435-1.007 3.435-1.007s1.4-2.114 3.914-2.435c-.209-.7-.884-1.833-3.007-2.89-.174.268-.291.5-.314.674-.123.956 1.235 2.464 1.235 2.464l-1.662 1.02s-.448-3.02-8.193-2.392c-10.725 1.254-15.04-5.727-15.495-6.397-.455-.67.452-.459.738-.552.287-.093 3.884 3.471 4.23 3.36.344-.113-.381-2.82-.381-2.82s.968-.078 1.361 1.826c.393 1.903 1.922 2.403 4.719 2.9 2.797.496 4.63.114 4.259-.072-2.388-.387-1.908-2.886-1.676-2.173.232.714 2.593 1.642 3.975 1.752 1.382.11 3.874.756 4.96.748-.29-.385-.28-.834-.205-1.291a24.2 24.2 0 0 0-1.187-.33C29.813 17.058 27.956 9.008 27.741 8.222c-.215-.785.545-.299.832-.299.287 0 2.5 4.545 2.845 4.545.346 0 .487-2.827.487-2.827s.9.228.696 2.18c-.204 1.95 1.034 2.907 3.425 4.256 2.39 1.35 4.166 1.555 3.883 1.26-2.051-1.116-.88-3.367-.88-2.61 0 .663 1.428 1.99 2.603 2.673.384-.958.96-2.195 1.154-3.005.29-1.211-.362-1.695.372-1.933.77-.18.974 1.541.985 2.61.007.696-.435 2.25-.744 3.245.12.067.24.136.36.205.351-.385.757-.851.985-1.18.458-.66.99-1.66 1.287-.743.159.488-.608 1.476-1.38 2.437z" id="a"/><path d="M35.626 22.66a4.483 4.483 0 0 1 1.731-.685c-.19-.799-.767-2.049-2.472-3.266-.266.467-.452.875-.465 1.164-.041.87.784 2.177 1.206 2.786zm-1.433 1.292c-.491.588-.749 1.075-.749 1.075s-1.757.516-3.434 1.261c-1.677.746-1.405 1.533-2.824 2.336 2.128.804 4.677 1.46 6.847-.803 4.023 10.74 1.692 12.913-.718 17.403-2.41 4.49-4.36 6.443-12.006 6.638-7.646.196-9.72 4.24-9.72 4.24s.43-1.525-3.135-2.739c-2.15-.748-2.429-.764-3.406-2.118-.81 3.797.491 4.958 1.87 6.658 1.38 1.699 4.109.546 4.672.908-.946 3.423.906 7.92.906 9.424-.977 1.361-5.577 5.608-5.577 5.608s.783 13.596 0 13.596c-.784 0-3.046 3.23-3.046 3.23l3.829.742s2.161-1.11 2.693-2.053c.446-2.277-.206-8.306 0-11.507 1.69-2.526 4.884-3.382 6.734-4.008 1.91-.8 4.59-4.726 5.431-7.984 14.987-2.192 13.952-5.543 15.295-5.4 1.457.953 4.533 1.381 5.964.733 1.43-.648 7.848-5.603 8.558-5.09-.208.622-.212 2.471-1.389 4.353-1.176 1.882-2.022 3.689-2.717 5.015-.695 1.327-.044 1.972-.044 1.972s-.62.604-1.966 1.297c-1.346.692-.409 6.18.39 5.104.8-1.076 2.603-3.625 3.567-4.767 1.012 0 1.947-2.255 3.734-6.018 1.787-3.764 2.662-9.518.57-10.796-2.093-1.277-9.9 2.592-9.9 2.592s2.629-6.094 2.03-11.413c-.6-5.319-3.401-9.584-2.833-11.05.568-1.466 4.179-.849 6.4-2.198 2.22-1.35 3.102-5.824 2.158-5.166-.943.658-4.634.861-7.07-.9-2.1-1.517-3.844-2.055-6.152-2.175-.195-.667-.61-2.288-.302-3.15.394-1.104 3.882-3.17 3.882-4.392 0-1.22-.776-.223-1.386.392-.61.616-2.035 1.618-2.035 1.618s1.854-3.296 2.159-4.586c.304-1.29.627-3.44-.124-3.526-.736 0-.288.837-.907 2.181-.62 1.345-2.295 3.501-2.59 4.387-.295.886-.907 1.766-.65 2.766-.313-.13-.734-.396-1.202-.72.608-.972 1.12-1.912.948-2.442-.374-1.15-.843.04-1.263.818a10.39 10.39 0 0 1-.619.96l-.577-.418c.222-1.164.461-2.644.41-3.378-.09-1.314-.427-3.444-1.202-3.281-.734.238-.03.881-.237 2.348-.118.843-.503 2.052-.813 3.104-1.206-.797-2.81-2.613-2.81-3.493 0-.95-1.172 1.87.879 3.27.283.37-1.493.112-3.883-1.58-2.39-1.69-3.628-2.89-3.424-5.335.205-2.445-.696-2.73-.696-2.73s-.14 3.543-.486 3.543-2.558-5.697-2.845-5.697c-.287 0-1.047-.61-.832.375.215.985 2.072 11.074 12.166 13.758.52.164.998.336 1.44.514-.077.707-.151 1.429.262 2.06-1.11-.072-3.711-1.052-5.135-1.29-1.423-.239-3.91-1.555-4.201-2.45-.29-.894-.596 2.143 1.878 2.797.395.256-1.455.588-4.356-.23-2.9-.819-4.503-1.547-5.048-3.916-.544-2.37-1.53-2.347-1.53-2.347s.944 3.383.6 3.495c-.345.112-4.295-4.537-4.581-4.444-.287.093-1.23-.234-.715.623.515.858 5.455 9.76 16.344 9.017 6.863-.17 8.27 2.647 8.52 3.379z" id="c"/><path d="M26.125 17.094c.11-.053.224-.1.344-.139-.06-.359-.23-.894-.687-1.486-.076.159-.124.297-.128.405-.014.36.252.866.47 1.22zm-.769.518a4.746 4.746 0 0 0-.988 1.237s-1.11.336-2.17.82c-1.06.485-.887.997-1.783 1.52 1.344.522 2.954.949 4.325-.523 2.542 6.983 1.07 8.396-.453 11.315-1.523 2.92-2.755 4.189-7.586 4.316-4.83.127-6.14 2.756-6.14 2.756s.271-.99-1.981-1.78c-1.359-.487-1.535-.497-2.152-1.377-.512 2.468.31 3.224 1.182 4.328.871 1.105 2.595.355 2.95.59-.597 2.227.574 5.15.574 6.128-.618.885-3.524 3.646-3.524 3.646s.494 8.84 0 8.84c-.495 0-1.924 2.1-1.924 2.1l2.418.483s1.366-.722 1.702-1.335c.282-1.48-.13-5.4 0-7.482 1.067-1.642 3.086-2.199 4.255-2.606 1.206-.52 2.198-.976 2.729-3.095 2.327-.35 4.74-1.704 6.018-2.1 3.918-1.217 3.707-3.577 4.347-3.506.92.62 2.864.897 3.768.476.903-.421 4.958-3.643 5.407-3.31-.132.405-.134 1.607-.878 2.831-.743 1.224-1.277 2.398-1.716 3.26-.44.863-.028 1.283-.028 1.283s-.392.393-1.242.843c-.85.45-.259 4.018.246 3.318.505-.699 1.645-2.356 2.254-3.099.64 0 1.23-1.466 2.359-3.913s1.682-6.188.36-7.019c-1.322-.83-6.255 1.685-6.255 1.685s1.66-3.962 1.282-7.42c-.378-3.458-2.148-6.231-1.79-7.184.36-.954 2.641-.553 4.044-1.43 1.403-.878 1.96-3.787 1.364-3.359-.596.428-2.928.56-4.467-.584-1.402-1.043-2.553-1.375-4.139-1.426-.129-.442-.456-1.695-.23-2.348.279-.802 2.744-2.305 2.744-3.193 0-.888-.549-.163-.98.285-.43.447-1.438 1.176-1.438 1.176s1.31-2.397 1.526-3.336c.215-.938.443-2.502-.088-2.564-.52 0-.203.609-.64 1.587-.438.977-1.623 2.546-1.831 3.19-.19.59-.569 1.175-.493 1.827a4.465 4.465 0 0 1-.074.135 4.832 4.832 0 0 1-.471-.286c.078-.497.14-1.012.117-1.303-.052-.686-.233-1.798-.627-1.717-.373.122-.012.46-.11 1.225-.042.319-.154.738-.27 1.154-.555-.413-1.128-.847-1.554-1.088-.863-.49-2.183-1.974-2.183-2.664 0-.69-.828 1.36.622 2.379.2.268-1.055.08-2.744-1.15-1.69-1.23-2.565-2.102-2.42-3.88.145-1.778-.492-1.986-.492-1.986s-.1 2.577-.344 2.577c-.244 0-1.807-4.143-2.01-4.143-.203 0-.74-.443-.588.273.152.716 1.464 8.054 8.598 10.006 1.196.388 2.092.838 2.764 1.3-.034.431-.13.888.123 1.28-.567-.042-1.896-.564-2.623-.695-.727-.13-2-.828-2.152-1.296-.152-.468-.295 1.115.97 1.467.202.136-.74.3-2.222-.139-1.483-.44-2.303-.826-2.59-2.065-.288-1.238-.79-1.23-.79-1.23s.495 1.768.32 1.825c-.175.057-2.209-2.385-2.354-2.338-.146.047-.629-.128-.362.322.266.45 2.823 5.115 8.37 4.775 2.72-.045 3.766.836 4.158 1.41z" id="e"/><path d="M27.155 18.345a3.28 3.28 0 0 1 .41-.164c-.073-.429-.275-1.067-.819-1.773-.09.19-.148.355-.153.483-.016.43.3 1.033.562 1.454zm-.917.618c-.768.677-1.178 1.476-1.178 1.476s-1.324.4-2.587.978c-1.264.578-1.058 1.188-2.127 1.81 1.602.624 3.523 1.133 5.158-.622 3.03 8.326 1.274 10.011-.541 13.492-1.815 3.48-3.285 4.995-9.045 5.146-5.76.152-7.322 3.287-7.322 3.287s.324-1.182-2.362-2.123c-1.62-.58-1.83-.592-2.566-1.642-.61 2.944.37 3.844 1.41 5.161 1.039 1.318 3.094.424 3.518.704-.712 2.654.683 6.14.683 7.307-.736 1.055-4.202 4.347-4.202 4.347s.59 10.54 0 10.54-2.294 2.505-2.294 2.505l2.884.575s1.629-.86 2.03-1.592c.335-1.765-.156-6.439 0-8.92 1.272-1.959 3.678-2.622 5.072-3.108 1.439-.62 2.621-1.164 3.255-3.69 2.775-.418 5.653-2.033 7.175-2.505 4.672-1.45 4.42-4.264 5.184-4.18 1.097.738 3.415 1.07 4.493.567 1.077-.502 5.912-4.344 6.447-3.946-.157.483-.16 1.916-1.046 3.375-.886 1.46-1.524 2.86-2.047 3.888-.524 1.028-.033 1.529-.033 1.529s-.468.468-1.482 1.005c-1.013.537-.308 4.791.295 3.957.602-.834 1.96-2.81 2.687-3.695.762 0 1.466-1.749 2.812-4.666 1.347-2.918 2.006-7.379.43-8.37-1.577-.99-7.458 2.01-7.458 2.01s1.98-4.725 1.529-8.848c-.452-4.124-2.562-7.43-2.134-8.567.427-1.136 3.148-.658 4.82-1.704 1.673-1.047 2.338-4.515 1.627-4.005-.71.51-3.491.668-5.327-.697-1.671-1.243-3.044-1.64-4.934-1.7-.154-.527-.544-2.02-.274-2.8.332-.956 3.271-2.749 3.271-3.808 0-1.058-.654-.194-1.168.34-.514.534-1.715 1.403-1.715 1.403s1.563-2.859 1.82-3.977c.256-1.12.528-2.984-.105-3.058-.62 0-.242.726-.764 1.892s-1.934 3.036-2.183 3.804c-.227.703-.678 1.401-.588 2.179a5.319 5.319 0 0 1-.087.16 5.762 5.762 0 0 1-.563-.34c.093-.593.167-1.207.14-1.554-.062-.818-.277-2.144-.748-2.047-.445.144-.014.548-.131 1.46-.05.38-.183.88-.323 1.376-.66-.493-1.343-1.01-1.852-1.298-1.028-.584-2.602-2.353-2.602-3.176 0-.824-.988 1.623.74 2.836.24.32-1.257.097-3.271-1.37-2.014-1.466-3.058-2.506-2.885-4.627.172-2.12-.587-2.368-.587-2.368s-.119 3.073-.41 3.073-2.155-4.94-2.397-4.94-.883-.529-.702.325c.182.854 1.746 9.603 10.253 11.932 1.426.462 2.495.999 3.296 1.549-.04.515-.156 1.059.146 1.527-.675-.05-2.26-.673-3.127-.829-.867-.155-2.385-.987-2.567-1.545-.181-.558-.35 1.33 1.156 1.749.242.161-.88.359-2.648-.166-1.768-.524-2.746-.985-3.089-2.462-.343-1.477-.942-1.468-.942-1.468s.591 2.11.382 2.178c-.209.068-2.633-2.845-2.807-2.789-.174.057-.75-.152-.432.384.318.537 3.367 6.1 9.982 5.694 3.242-.054 4.49.997 4.957 1.682z" id="g"/><path d="M18.644 14.387c.091-.058.188-.112.29-.16-.031-.34-.184-.995-.857-1.716a1.009 1.009 0 0 0-.115.353c-.028.489.473 1.235.682 1.523zm-.803.713a3.575 3.575 0 0 0-.376.528s-.958.272-1.872.665c-.915.393-.766.808-1.54 1.232 1.16.423 2.55.77 3.733-.424 2.193 5.661.922 6.807-.392 9.174-1.313 2.366-2.376 3.396-6.544 3.499-4.168.103-5.298 2.234-5.298 2.234s.234-.803-1.71-1.443c-1.172-.395-1.324-.403-1.856-1.116-.442 2.001.267 2.613 1.02 3.509.751.896 2.239.288 2.546.478-.516 1.805.494 4.175.494 4.968-.533.718-3.04 2.956-3.04 2.956s.426 7.167 0 7.167c-.428 0-1.66 1.703-1.66 1.703l2.086.39s1.178-.583 1.468-1.08c.243-1.2-.112-4.379 0-6.066.921-1.331 2.663-1.783 3.671-2.113 1.041-.421 2.502-2.49 2.96-4.208 8.17-1.155 7.606-2.922 8.338-2.847.794.503 2.471.728 3.251.387.78-.342 4.278-2.954 4.665-2.684-.113.329-.116 1.303-.757 2.295-.64.992-1.102 1.945-1.481 2.644-.379.699-.024 1.04-.024 1.04s-.338.318-1.072.683c-.733.365-.223 3.257.213 2.69.436-.567 1.419-1.91 1.944-2.512.552 0 1.061-1.19 2.036-3.173.974-1.983 1.451-5.017.31-5.69-1.14-.674-5.396 1.366-5.396 1.366s1.433-3.212 1.106-6.016c-.326-2.804-1.854-5.052-1.544-5.825.31-.772 2.278-.447 3.488-1.159 1.21-.711 1.692-3.07 1.177-2.723-.514.347-2.526.454-3.854-.474-1.276-.892-2.312-1.142-3.8-1.16-.111-.347-.463-1.552-.236-2.168.267-.723 2.634-2.08 2.634-2.881 0-.801-.527-.147-.94.257-.414.404-1.382 1.062-1.382 1.062s1.259-2.164 1.465-3.01c.207-.847.426-2.258-.083-2.314-.5 0-.196.549-.616 1.431-.42.883-1.558 2.298-1.758 2.88-.092.268-.23.535-.336.81-.069.12-.138.258-.205.376-.07.124-.172.277-.283.431a8.847 8.847 0 0 1-.353-.221c.122-.603.247-1.335.224-1.705-.042-.695-.214-1.82-.636-1.73-.4.13-.02.467-.14 1.244-.064.413-.254.994-.42 1.52-.434-.304-.861-.596-1.195-.774-.828-.442-2.096-1.78-2.096-2.404 0-.623-.795 1.228.597 2.147.192.242-1.013.073-2.635-1.037-1.622-1.11-2.463-1.897-2.324-3.502.139-1.604-.473-1.792-.473-1.792S8.845 4.94 8.61 4.94c-.234 0-1.735-3.74-1.93-3.74-.195 0-.711-.399-.565.247.146.646 1.406 7.268 8.257 9.03.99.302 1.768.645 2.376 1.001-.046.38-.094.767.13 1.102-.604-.031-2.011-.536-2.784-.655-.772-.118-2.117-.8-2.27-1.272-.153-.472-.335 1.136 1.006 1.468.213.134-.794.32-2.366-.098-1.572-.418-2.439-.795-2.722-2.045-.283-1.25-.82-1.232-.82-1.232s.496 1.784.308 1.845c-.188.06-2.31-2.377-2.465-2.326-.157.05-.668-.118-.392.333.275.45 2.913 5.132 8.834 4.682 4.082-.138 4.594 1.65 4.634 1.82z" id="i"/><path d="M.619 14.91c-2.08-3.666 2.926-8.254 7.61-11.032C11.21 2.109 14.448.973 18.77.973c11.105 0 49.204 9.553 49.204 9.553s12.586 0 18.96 3.295c1.079.558 6.46 2.163 10.439 10.165 3.336 9.294 3.765 12.43 7.57 13.554 3.806 1.125 8.132-1.136 10.15 1.125 2.18 2.443.502 6.582-3.713 7.849-3.05.916-5.724 2.097-10.029 0-6.1-2.973-9.183-24.256-17.637-27.307-6.902-2.492-13.648-.374-18.5 6.825-1.092 1.62-.066 9.52-3.709 11.508-5.32 2.906-12.93-1.05-21.159-5.55-3.916-2.143-9.607-5.207-17.72-8.004-8.933-3.079-20.224-5.93-22.008-9.075z" id="k"/></defs><g fill="none" fill-rule="evenodd"><path d="M610.471 253.01l-.126-.018a.893.893 0 0 0 .189-.426.897.897 0 0 0-1.56-.723l-.756.85-1.148-.162 1.64-1.446a.896.896 0 0 0 .08-1.267.898.898 0 0 0-1.267-.08l-2.795 2.464-.285-.04.395-1.126a.898.898 0 0 0-1.694-.593l-.514 1.465-1.398-.196-.968-2.395.87-1.112 1.388.698a.897.897 0 1 0 .806-1.604l-1.067-.536.177-.227 3.723-.169a.898.898 0 1 0-.081-1.794l-2.186.1.714-.914 1.135.086a.898.898 0 0 0 .619-1.604.893.893 0 0 0-.432-.175l.079-.101a.898.898 0 1 0-1.415-1.105l-.077.098a.896.896 0 0 0-1.682.615l.358 1.08-.713.914-.433-2.144a.898.898 0 1 0-1.76.355l.736 3.652-.177.227-.778-.905a.898.898 0 1 0-1.361 1.171l1.012 1.177-.882 1.125-2.543-.346-.538-1.332 1.298-.853a.897.897 0 1 0-.987-1.5l-.997.655-.108-.267 1.715-3.307a.898.898 0 1 0-1.594-.827l-1.007 1.941-.434-1.074.641-.94a.898.898 0 0 0-.235-1.247.894.894 0 0 0-1.212.193l-.047-.116a.898.898 0 0 0-1.664.673l.046.115a.895.895 0 0 0-.308 1.764l1.114.23.434 1.075-2.072-.697a.898.898 0 0 0-.573 1.701l3.531 1.19.108.266-1.173.222a.898.898 0 1 0 .333 1.764l1.526-.289.538 1.332-1.59 2.016-1.415-.198-.09-1.55a.898.898 0 1 0-1.792.104l.069 1.192-.285-.04-2.008-3.14a.899.899 0 0 0-1.512.968l1.178 1.843-1.148-.162-.493-1.025a.896.896 0 1 0-1.637.726l-.123-.017a.898.898 0 0 0-.25 1.778l.127.018a.894.894 0 0 0-.19.426.897.897 0 0 0 1.56.723l.757-.85 1.147.162-1.64 1.446a.894.894 0 0 0-.08 1.267.898.898 0 0 0 1.267.08l2.795-2.464.285.04-.395 1.127a.898.898 0 0 0 1.694.593l.514-1.466 1.398.196.968 2.395-.87 1.111-1.388-.697a.897.897 0 1 0-.806 1.604l1.067.536-.177.227-3.722.17a.898.898 0 1 0 .081 1.794l2.185-.1-.714.913-1.135-.085a.898.898 0 0 0-.619 1.603c.121.095.27.153.432.175l-.079.1a.898.898 0 1 0 1.415 1.106l.077-.098a.896.896 0 0 0 1.682-.615l-.357-1.08.713-.914.432 2.144a.898.898 0 0 0 1.76-.355l-.736-3.653.177-.226.78.905a.897.897 0 0 0 1.361-1.17l-1.013-1.178.88-1.125 2.544.346.538 1.332-1.298.853a.898.898 0 0 0 .986 1.5l.998-.655.108.266-1.715 3.308a.898.898 0 0 0 1.594.827l1.007-1.941.434 1.074-.641.94a.896.896 0 1 0 1.447 1.055l.046.115a.898.898 0 0 0 1.665-.673l-.048-.118a.894.894 0 0 0 .464-.05.897.897 0 0 0-.154-1.711l-1.114-.23-.434-1.075 2.072.697a.896.896 0 0 0 1.138-.564.898.898 0 0 0-.565-1.138l-3.531-1.188-.108-.267 1.173-.222a.897.897 0 0 0-.332-1.764l-1.527.289-.538-1.333 1.59-2.016 1.415.198.09 1.55a.898.898 0 1 0 1.792-.104l-.069-1.192.285.04 2.007 3.139a.898.898 0 1 0 1.513-.968l-1.178-1.842 1.148.161.493 1.026a.896.896 0 1 0 1.637-.726l.124.018a.898.898 0 0 0 .25-1.778zm-15.073 1.04l-.955-2.363 1.601-2.03 2.562.348.955 2.364-1.601 2.03-2.562-.348zm94.017-37.698l-.084.03a.621.621 0 0 0-.018-.325.624.624 0 0 0-1.196.045l-.2.766-.763.262.56-1.415a.622.622 0 0 0-.35-.811.625.625 0 0 0-.812.35l-.955 2.413-.19.065-.11-.824a.625.625 0 0 0-1.238.167l.144 1.072-.929.32-1.358-1.18.189-.964 1.08-.006a.625.625 0 1 0-.006-1.25l-.83.005.037-.196 2.256-1.282a.625.625 0 1 0-.618-1.087l-1.323.752.153-.792.731-.305a.625.625 0 0 0-.122-1.19.621.621 0 0 0-.323.027l.016-.087a.625.625 0 1 0-1.227-.239l-.016.086a.623.623 0 0 0-.849.913l.563.557-.153.792-.946-1.193a.625.625 0 1 0-.98.776l1.611 2.033-.038.197-.769-.316a.625.625 0 1 0-.474 1.157l1 .41-.191.976-1.687.59-.755-.657.536-.94a.625.625 0 1 0-1.087-.618l-.411.722-.151-.131.018-2.594a.625.625 0 1 0-1.25-.009l-.01 1.522-.61-.529.101-.785a.625.625 0 0 0-1.23-.197l-.066-.057a.625.625 0 0 0-.82.943l.065.057a.623.623 0 0 0 .366 1.192l.764-.21.61.53-1.507.222a.625.625 0 0 0 .183 1.237l2.566-.379.151.131-.658.509a.625.625 0 1 0 .765.989l.855-.662.754.657-.348 1.752-.94.325-.546-.933a.625.625 0 1 0-1.08.63l.42.718-.19.065-2.236-1.312a.626.626 0 0 0-.633 1.078l1.313.77-.763.263-.63-.48a.624.624 0 0 0-.786.967l-.082.029a.625.625 0 0 0 .407 1.182l.085-.03a.622.622 0 0 0 .017.325.624.624 0 0 0 1.196-.044l.2-.767.763-.262-.56 1.415a.623.623 0 0 0 .351.811.625.625 0 0 0 .812-.35l.954-2.412.19-.066.11.824a.625.625 0 0 0 1.238-.167l-.144-1.072.93-.32 1.357 1.18-.189.964-1.08.006a.624.624 0 1 0 .006 1.25l.831-.005-.038.196-2.255 1.282a.625.625 0 1 0 .617 1.087l1.324-.752-.154.792-.73.305a.625.625 0 0 0 .122 1.19c.105.021.216.01.323-.027l-.017.087a.625.625 0 1 0 1.227.239l.016-.086a.624.624 0 0 0 .85-.913l-.564-.557.154-.792.945 1.193a.625.625 0 0 0 .98-.776l-1.61-2.033.037-.197.77.316a.624.624 0 1 0 .474-1.156l-1-.41.19-.977 1.687-.59.755.657-.535.939a.625.625 0 0 0 1.086.62l.411-.723.151.131-.018 2.594a.625.625 0 0 0 1.25.009l.011-1.522.609.529-.101.785a.624.624 0 1 0 1.231.197l.065.057a.625.625 0 0 0 .82-.943l-.067-.059a.62.62 0 0 0 .272-.176.625.625 0 0 0-.636-1.014l-.764.21-.609-.53 1.506-.222a.624.624 0 1 0-.183-1.237l-2.566.38-.15-.132.657-.508a.625.625 0 0 0-.764-.99l-.856.662-.755-.657.35-1.752.94-.325.545.933a.625.625 0 1 0 1.08-.631l-.42-.718.189-.065 2.237 1.312a.625.625 0 1 0 .633-1.078l-1.313-.77.763-.263.63.48a.624.624 0 1 0 .786-.968l.082-.027a.625.625 0 0 0-.407-1.182zm-9.02 5.41l-1.34-1.165.352-1.765 1.699-.593 1.339 1.164-.352 1.765-1.698.594zm-31.207-7.616l-.077-.044a.621.621 0 0 0 .233-.226.624.624 0 0 0-.818-.874l-.71.352-.699-.404 1.436-.505a.622.622 0 0 0 .382-.797.625.625 0 0 0-.797-.382l-2.447.861-.173-.1.548-.624a.625.625 0 0 0-.939-.825l-.713.812-.851-.49v-1.8l.851-.49.714.812a.625.625 0 1 0 .938-.825l-.548-.624.173-.1 2.447.862a.625.625 0 1 0 .415-1.18l-1.436-.505.699-.404.71.351a.625.625 0 0 0 .818-.873.621.621 0 0 0-.233-.226l.077-.044a.625.625 0 1 0-.625-1.083l-.075.044a.623.623 0 0 0-1.246-.042l-.051.79-.699.404.28-1.496a.625.625 0 1 0-1.229-.23l-.477 2.55-.173.1-.267-.788a.625.625 0 1 0-1.184.4l.347 1.025-.863.496-1.55-.887v-1l1.06-.212a.625.625 0 1 0-.246-1.225l-.815.163v-.2l1.97-1.688a.625.625 0 1 0-.814-.95l-1.156.99v-.806l.66-.439a.625.625 0 0 0-.66-1.058v-.087a.625.625 0 0 0-1.25 0v.087a.623.623 0 0 0-.659 1.058l.66.44v.806l-1.157-.99a.625.625 0 0 0-.813.948l1.97 1.689v.2l-.816-.163a.625.625 0 1 0-.245 1.226l1.06.211v1l-1.551.887-.862-.497.346-1.024a.625.625 0 1 0-1.184-.4l-.266.787-.174-.1-.477-2.55a.626.626 0 0 0-1.229.23l.28 1.497-.698-.404-.051-.79a.624.624 0 0 0-1.246.041l-.075-.043a.625.625 0 0 0-.625 1.083l.077.044a.622.622 0 0 0-.233.226.624.624 0 0 0 .817.873l.71-.35.7.403-1.437.505a.623.623 0 0 0-.382.797.625.625 0 0 0 .798.383l2.446-.862.174.1-.55.624a.625.625 0 0 0 .939.825l.714-.812.852.49v1.8l-.852.49-.713-.812a.624.624 0 1 0-.94.825l.55.624-.174.1-2.446-.861a.625.625 0 1 0-.416 1.18l1.436.505-.698.403-.71-.351a.625.625 0 0 0-.818.873.61.61 0 0 0 .233.226l-.077.044a.625.625 0 1 0 .625 1.083l.075-.044a.624.624 0 0 0 1.246.042l.051-.79.699-.404-.28 1.496a.625.625 0 0 0 1.228.23l.477-2.55.174-.1.266.788a.624.624 0 1 0 1.184-.4l-.346-1.024.862-.497 1.551.887v1l-1.06.212a.625.625 0 0 0 .245 1.225l.815-.163v.2l-1.97 1.688a.625.625 0 0 0 .814.95l1.156-.99v.806l-.659.439a.624.624 0 1 0 .66 1.058v.087a.625.625 0 0 0 1.25 0v-.09a.62.62 0 0 0 .311.09.625.625 0 0 0 .347-1.145l-.659-.44v-.806l1.156.99a.624.624 0 1 0 .813-.948l-1.969-1.688v-.2l.815.162a.625.625 0 0 0 .246-1.225l-1.06-.212v-1l1.55-.887.863.497-.346 1.023a.625.625 0 1 0 1.184.4l.266-.787.173.1.478 2.55a.625.625 0 1 0 1.228-.23l-.28-1.496.699.403.051.79a.624.624 0 1 0 1.246-.042l.075.044a.625.625 0 0 0 .625-1.082zm-10-3.258v-1.775l1.562-.893 1.563.893v1.775l-1.563.892-1.562-.892zM472.437 376.084l-.147-.022c.117-.148.195-.317.22-.494a1.042 1.042 0 0 0-1.812-.84l-.879.987-1.333-.187 1.906-1.68a1.04 1.04 0 0 0 .092-1.472 1.043 1.043 0 0 0-1.472-.093l-3.247 2.862-.331-.046.459-1.31a1.043 1.043 0 0 0-1.968-.69l-.597 1.704-1.624-.227-1.124-2.783 1.01-1.291 1.612.81a1.043 1.043 0 1 0 .937-1.863l-1.24-.623.207-.263 4.324-.196a1.043 1.043 0 1 0-.095-2.085l-2.538.116.829-1.061 1.318.1a1.044 1.044 0 0 0 .72-1.863 1.037 1.037 0 0 0-.502-.204l.091-.117a1.043 1.043 0 1 0-1.643-1.284l-.09.114a1.04 1.04 0 0 0-1.953.714l.415 1.255-.829 1.061-.502-2.49a1.043 1.043 0 1 0-2.045.413l.856 4.242-.206.264-.904-1.052a1.043 1.043 0 1 0-1.581 1.36l1.175 1.368-1.024 1.308-2.954-.403-.626-1.548 1.509-.99a1.042 1.042 0 1 0-1.147-1.743l-1.158.761-.125-.31 1.992-3.842a1.043 1.043 0 1 0-1.852-.96l-1.17 2.255-.504-1.248.745-1.092a1.043 1.043 0 0 0-.273-1.45 1.039 1.039 0 0 0-1.408.225l-.054-.135a1.043 1.043 0 0 0-1.935.782l.055.134a1.04 1.04 0 0 0-.359 2.05l1.295.267.504 1.248-2.407-.81a1.043 1.043 0 0 0-.666 1.977l4.102 1.38.126.31-1.363.258a1.043 1.043 0 1 0 .387 2.05l1.772-.335.625 1.547-1.846 2.342-1.644-.23-.104-1.8a1.043 1.043 0 1 0-2.082.12l.08 1.384-.332-.046-2.332-3.647a1.044 1.044 0 0 0-1.757 1.124l1.368 2.14-1.332-.187-.574-1.191a1.04 1.04 0 1 0-1.902.843l-.143-.02a1.043 1.043 0 0 0-.29 2.066l.147.02a1.039 1.039 0 0 0-.22.496 1.042 1.042 0 0 0 1.812.84l.88-.988 1.333.188-1.906 1.68a1.042 1.042 0 0 0 1.38 1.565l3.247-2.862.33.046-.458 1.31a1.043 1.043 0 0 0 1.968.69l.596-1.705 1.624.227 1.125 2.784-1.01 1.29-1.613-.81a1.042 1.042 0 1 0-.937 1.863l1.24.623-.206.263-4.324.198a1.043 1.043 0 1 0 .095 2.084l2.537-.116-.828 1.061-1.319-.1a1.043 1.043 0 0 0-.719 1.864c.14.11.314.178.502.203l-.092.117a1.043 1.043 0 1 0 1.644 1.284l.089-.115a1.04 1.04 0 0 0 1.954-.714l-.415-1.255.829-1.06.502 2.49a1.044 1.044 0 0 0 2.045-.413l-.856-4.243.206-.263.905 1.052a1.042 1.042 0 1 0 1.581-1.36l-1.176-1.368 1.023-1.307 2.955.402.625 1.547-1.508.99a1.043 1.043 0 0 0 1.146 1.744l1.159-.762.125.31-1.992 3.843a1.043 1.043 0 0 0 1.852.96l1.17-2.255.503 1.248-.745 1.092a1.04 1.04 0 1 0 1.681 1.225l.055.134a1.043 1.043 0 0 0 1.934-.781l-.056-.138c.188.027.373.01.538-.057a1.042 1.042 0 0 0-.178-1.989l-1.295-.268-.504-1.248 2.408.81a1.041 1.041 0 0 0 1.321-.655 1.043 1.043 0 0 0-.656-1.321l-4.102-1.381-.125-.31 1.362-.258a1.043 1.043 0 0 0-.386-2.05l-1.773.336-.625-1.548 1.846-2.342 1.645.23.104 1.8a1.043 1.043 0 1 0 2.082-.12l-.08-1.385.33.046 2.333 3.647a1.043 1.043 0 1 0 1.757-1.124l-1.368-2.14 1.333.187.573 1.191a1.04 1.04 0 1 0 1.902-.844l.143.022a1.043 1.043 0 0 0 .29-2.065zm-17.51 1.209l-1.11-2.746 1.86-2.358 2.976.404 1.11 2.746-1.86 2.358-2.976-.404zm155.025-67.776l-.084.028a.621.621 0 0 0-.017-.323.624.624 0 0 0-1.196.044l-.2.766-.764.263.561-1.416a.622.622 0 0 0-.351-.81.625.625 0 0 0-.812.35l-.954 2.412-.19.065-.11-.823a.625.625 0 0 0-1.238.167l.144 1.071-.93.32-1.357-1.18.188-.964 1.081-.005a.625.625 0 1 0-.006-1.25l-.831.005.038-.197 2.255-1.281a.625.625 0 1 0-.617-1.088l-1.324.753.154-.792.73-.306a.625.625 0 0 0-.122-1.19.621.621 0 0 0-.323.028l.017-.088a.625.625 0 1 0-1.227-.238l-.016.085a.623.623 0 0 0-.85.913l.564.557-.154.792-.945-1.193a.625.625 0 1 0-.98.777l1.61 2.032-.037.197-.77-.316a.625.625 0 1 0-.474 1.157l1 .41-.19.977-1.688.589-.755-.656.536-.94a.625.625 0 1 0-1.086-.618l-.411.721-.152-.131.019-2.594a.625.625 0 1 0-1.25-.008l-.011 1.522-.609-.53.1-.785a.625.625 0 0 0-1.23-.197l-.066-.057a.625.625 0 0 0-.82.944l.066.057a.623.623 0 0 0 .366 1.191l.764-.209.609.53-1.506.221a.625.625 0 0 0 .183 1.237l2.565-.379.152.132-.658.508a.625.625 0 1 0 .764.99l.855-.662.755.656-.349 1.753-.94.324-.545-.933a.625.625 0 1 0-1.08.63l.42.718-.19.066-2.237-1.313a.626.626 0 0 0-.632 1.078l1.313.77-.763.263-.63-.48a.624.624 0 0 0-.786.968l-.082.028a.625.625 0 0 0 .407 1.182l.084-.029a.622.622 0 0 0 .018.324.624.624 0 0 0 1.195-.044l.201-.767.763-.262-.56 1.415a.623.623 0 0 0 .35.812.625.625 0 0 0 .812-.351l.955-2.412.19-.065.11.824a.625.625 0 0 0 1.238-.167l-.144-1.072.929-.321 1.357 1.18-.188.964-1.081.006a.624.624 0 1 0 .006 1.25l.832-.005-.039.197-2.255 1.281a.625.625 0 1 0 .618 1.088l1.323-.753-.153.792-.731.306a.625.625 0 0 0 .122 1.19c.105.02.216.01.324-.028l-.018.087a.625.625 0 1 0 1.227.239l.017-.086a.624.624 0 0 0 .849-.912l-.563-.558.154-.791.945 1.192a.625.625 0 0 0 .98-.776l-1.611-2.033.038-.196.77.315a.624.624 0 1 0 .474-1.156l-1-.41.19-.977 1.687-.589.755.656-.536.94a.625.625 0 0 0 1.086.619l.412-.723.15.132-.017 2.593a.625.625 0 0 0 1.25.01l.01-1.523.61.53-.101.785a.624.624 0 1 0 1.231.197l.065.057a.625.625 0 0 0 .82-.944l-.067-.058a.62.62 0 0 0 .272-.177.625.625 0 0 0-.637-1.013l-.764.209-.608-.53 1.505-.222a.624.624 0 1 0-.182-1.236l-2.566.378-.151-.131.657-.508a.625.625 0 0 0-.764-.99l-.855.662-.755-.656.349-1.753.94-.325.546.933a.625.625 0 1 0 1.079-.63l-.42-.718.19-.066 2.237 1.313a.625.625 0 1 0 .632-1.078l-1.313-.77.763-.263.63.48a.624.624 0 1 0 .786-.968l.082-.028a.625.625 0 0 0-.407-1.181zm-9.02 5.409l-1.339-1.164.351-1.765 1.7-.594 1.339 1.164-.352 1.765-1.699.594zm-37.744 1.22l-.077-.044a.621.621 0 0 0 .233-.226.624.624 0 0 0-.818-.873l-.71.35-.699-.403 1.436-.505a.622.622 0 0 0 .382-.797.625.625 0 0 0-.797-.382l-2.447.861-.173-.1.548-.624a.625.625 0 0 0-.939-.825l-.713.812-.851-.49v-1.8l.851-.49.714.812a.625.625 0 1 0 .938-.825l-.548-.624.173-.1 2.447.862a.625.625 0 1 0 .415-1.18l-1.436-.505.699-.404.71.351a.625.625 0 0 0 .818-.873.621.621 0 0 0-.233-.226l.077-.044a.625.625 0 1 0-.625-1.083l-.075.044a.623.623 0 0 0-1.246-.042l-.051.79-.699.404.28-1.496a.625.625 0 1 0-1.229-.23l-.477 2.55-.173.1-.267-.788a.625.625 0 1 0-1.184.4l.347 1.025-.863.496-1.55-.887v-1l1.06-.212a.625.625 0 1 0-.246-1.225l-.815.163v-.2l1.97-1.688a.625.625 0 1 0-.814-.95l-1.156.99v-.806l.66-.439a.625.625 0 0 0-.66-1.058v-.087a.625.625 0 0 0-1.25 0v.087a.623.623 0 0 0-.659 1.058l.66.44v.806l-1.157-.99a.625.625 0 0 0-.813.948l1.97 1.689v.2l-.816-.163a.625.625 0 1 0-.245 1.226l1.06.211v1l-1.551.887-.862-.497.346-1.024a.625.625 0 1 0-1.184-.4l-.266.787-.174-.1-.477-2.55a.626.626 0 0 0-1.229.23l.28 1.497-.698-.404-.051-.79a.624.624 0 0 0-1.246.041l-.075-.043a.625.625 0 0 0-.625 1.083l.077.044a.622.622 0 0 0-.233.226.624.624 0 0 0 .817.873l.71-.35.7.403-1.437.505a.623.623 0 0 0-.382.798.625.625 0 0 0 .798.382l2.446-.862.174.1-.55.625a.625.625 0 0 0 .939.825l.714-.813.852.49v1.8l-.852.49-.713-.812a.624.624 0 1 0-.94.825l.55.624-.174.1-2.446-.861a.625.625 0 1 0-.416 1.18l1.436.505-.698.403-.71-.351a.625.625 0 0 0-.818.873.61.61 0 0 0 .233.226l-.077.044a.625.625 0 1 0 .625 1.083l.075-.044a.624.624 0 0 0 1.246.042l.051-.79.699-.404-.28 1.496a.625.625 0 0 0 1.228.23l.477-2.55.174-.1.266.788a.624.624 0 1 0 1.184-.4l-.346-1.024.862-.497 1.551.887v1l-1.06.212a.625.625 0 0 0 .245 1.225l.815-.163v.2l-1.97 1.688a.625.625 0 0 0 .814.95l1.156-.99v.806l-.659.439a.624.624 0 1 0 .66 1.058v.087a.625.625 0 0 0 1.25 0v-.09a.62.62 0 0 0 .311.09.625.625 0 0 0 .347-1.145l-.659-.44v-.806l1.156.99a.624.624 0 1 0 .813-.948l-1.969-1.689v-.2l.815.163a.625.625 0 0 0 .246-1.225l-1.06-.212v-1l1.55-.887.863.497-.346 1.023a.625.625 0 1 0 1.184.4l.266-.787.173.1.478 2.55a.625.625 0 1 0 1.228-.23l-.28-1.496.699.403.051.79a.624.624 0 1 0 1.246-.042l.075.044a.625.625 0 0 0 .625-1.082zm-10-3.259v-1.774l1.562-.893 1.563.893v1.774l-1.563.893-1.562-.892zm-106.546-25.619l-1.29-.75.774-.208a.719.719 0 0 0-.37-1.389l-2.09.564 1.658-1.101a.722.722 0 0 0 .202-.996.712.712 0 0 0-.989-.204l-2.298 1.526-.062-.036.388-.404a.724.724 0 0 0-.017-1.017.712.712 0 0 0-1.01.018l-.636.662-1.232-.714h.901a.717.717 0 0 0 .715-.719.717.717 0 0 0-.715-.719h-.9l1.23-.714.636.662a.712.712 0 0 0 1.01.017.723.723 0 0 0 .018-1.017l-.388-.403.062-.037 2.298 1.527c.33.219.773.127.99-.204a.722.722 0 0 0-.203-.995l-1.658-1.102 2.09.564a.719.719 0 1 0 .37-1.388l-.774-.21 1.29-.749a.72.72 0 0 0 .262-.982.711.711 0 0 0-.976-.262l-1.29.749.207-.779a.714.714 0 1 0-1.38-.372l-.559 2.104-.12-1.996a.715.715 0 1 0-1.425.086l.165 2.765-.063.037-.153-.54a.714.714 0 1 0-1.374.396l.251.885-1.237.717.454-.792a.721.721 0 0 0-.261-.982.71.71 0 0 0-.976.263l-.453.788v-1.428l.888-.223a.72.72 0 0 0-.347-1.394l-.54.135v-.072l2.462-1.239a.721.721 0 0 0 .32-.965.713.713 0 0 0-.96-.321l-1.777.895 1.53-1.54a.722.722 0 0 0 0-1.017.711.711 0 0 0-1.01 0l-.566.57v-1.5A.717.717 0 0 0 437 271a.717.717 0 0 0-.714.719v1.5l-.567-.57a.711.711 0 0 0-1.01 0 .722.722 0 0 0 0 1.015l1.53 1.54-1.777-.894a.712.712 0 0 0-.959.322.721.721 0 0 0 .32.964l2.463 1.239v.072l-.541-.136a.72.72 0 0 0-.347 1.395l.888.223v1.428l-.453-.789a.711.711 0 0 0-.976-.263.721.721 0 0 0-.261.982l.454.793-1.238-.718.252-.885a.714.714 0 1 0-1.374-.395l-.153.54-.063-.037.165-2.765a.715.715 0 0 0-1.426-.087l-.12 1.997-.559-2.104a.714.714 0 1 0-1.38.372l.208.779-1.29-.75a.711.711 0 0 0-.976.263.72.72 0 0 0 .261.982l1.29.75-.773.208a.719.719 0 0 0 .37 1.388l2.09-.564-1.658 1.102a.722.722 0 0 0-.202.996c.216.331.66.422.989.204l2.298-1.527.062.036-.388.404a.723.723 0 0 0 .017 1.017.712.712 0 0 0 1.01-.018l.636-.662 1.232.715h-.902a.717.717 0 0 0-.714.719c0 .397.32.719.714.719h.902l-1.232.714-.636-.662a.712.712 0 0 0-1.01-.017.723.723 0 0 0-.017 1.017l.388.403-.062.036-2.298-1.526a.712.712 0 0 0-.99.203.722.722 0 0 0 .203.996l1.658 1.102-2.09-.564a.719.719 0 1 0-.37 1.389l.773.209-1.29.749a.721.721 0 0 0-.261.982.711.711 0 0 0 .975.263l1.29-.75-.206.779a.714.714 0 1 0 1.38.372l.559-2.104.12 1.997a.715.715 0 0 0 .755.674.717.717 0 0 0 .67-.76l-.165-2.766.063-.036.153.54a.714.714 0 1 0 1.374-.396l-.252-.885 1.238-.718-.454.793a.72.72 0 0 0 .617 1.078.714.714 0 0 0 .62-.36l.453-.788v1.428l-.888.223a.72.72 0 0 0 .347 1.395l.54-.136v.072l-2.462 1.239a.721.721 0 0 0-.32.965c.177.354.605.5.959.321l1.778-.894-1.53 1.54a.722.722 0 0 0 0 1.016c.278.28.73.28 1.01 0l.566-.57v1.5c0 .396.32.718.714.718a.717.717 0 0 0 .714-.719v-1.5l.567.57a.71.71 0 0 0 1.01 0 .722.722 0 0 0 0-1.015l-1.531-1.54 1.778.894a.714.714 0 0 0 .958-.321.721.721 0 0 0-.32-.965l-2.462-1.239v-.072l.541.136a.714.714 0 0 0 .866-.523.72.72 0 0 0-.52-.872l-.887-.223v-1.429l.453.79a.714.714 0 0 0 .976.262.72.72 0 0 0 .261-.982l-.454-.792 1.237.717-.251.885a.714.714 0 1 0 1.374.396l.153-.54.063.037-.165 2.765a.715.715 0 0 0 1.426.086l.119-1.996.56 2.103a.714.714 0 1 0 1.38-.372l-.208-.778 1.29.75c.342.199.779.08.976-.263a.72.72 0 0 0-.262-.982zm-88.338-44.698l.09.013a.625.625 0 0 0-.134.297.622.622 0 0 0 .204.556.63.63 0 0 0 .888-.053l.532-.594.804.111-1.152 1.012a.626.626 0 1 0 .831.94l1.963-1.725.2.027-.279.788a.624.624 0 0 0 .384.798.632.632 0 0 0 .803-.386l.361-1.024.98.135.676 1.671-.612.778-.971-.486a.632.632 0 0 0-.846.28.624.624 0 0 0 .278.841l.748.373-.125.159-2.61.122a.63.63 0 0 0-.6.657.623.623 0 0 0 .655.597l1.532-.073-.501.639-.796-.058a.632.632 0 0 0-.675.579.621.621 0 0 0 .24.541.62.62 0 0 0 .301.122l-.055.07a.625.625 0 0 0 .107.88c.274.213.67.164.884-.11l.054-.068a.628.628 0 0 0 1.18-.432l-.25-.754.501-.639.3 1.497a.63.63 0 1 0 1.234-.25l-.51-2.55.124-.159.544.632a.63.63 0 0 0 .956-.82l-.708-.82.62-.788 1.782.24.375.929-.91.597a.626.626 0 1 0 .69 1.046l.699-.459.075.186-1.206 2.313a.624.624 0 0 0 .268.844.632.632 0 0 0 .848-.27l.709-1.356.302.75-.45.657a.624.624 0 0 0 .163.87.63.63 0 0 0 .85-.136l.032.081a.63.63 0 0 0 .819.345.628.628 0 0 0 .35-.817l-.033-.08a.63.63 0 0 0 .706-.493.624.624 0 0 0-.488-.74l-.78-.16-.304-.75 1.452.485c.33.11.687-.067.798-.395a.624.624 0 0 0-.394-.794l-2.474-.825-.075-.187.823-.156a.626.626 0 1 0-.231-1.232l-1.07.204-.376-.93 1.117-1.41.991.137.061 1.082a.63.63 0 1 0 1.257-.074l-.047-.833.2.028 1.403 2.19a.63.63 0 0 0 1.062-.678l-.824-1.285.804.111.345.716a.628.628 0 0 0 1.149-.51l.086.012a.632.632 0 0 0 .712-.535.625.625 0 0 0-.535-.707l-.089-.012a.626.626 0 0 0 .133-.298.623.623 0 0 0-.203-.556.631.631 0 0 0-.889.053l-.531.595-.804-.112 1.151-1.012a.627.627 0 1 0-.83-.939l-1.963 1.724-.2-.027.279-.788a.624.624 0 0 0-.384-.798.632.632 0 0 0-.803.386l-.362 1.025-.98-.135-.675-1.672.611-.777.972.485c.31.155.689.03.845-.28a.624.624 0 0 0-.278-.84l-.747-.374.125-.158 2.609-.124a.63.63 0 0 0 .601-.656.622.622 0 0 0-.656-.597l-1.531.073.5-.639.796.059a.632.632 0 0 0 .676-.58.622.622 0 0 0-.24-.54.621.621 0 0 0-.302-.123l.055-.07a.625.625 0 0 0-.106-.88.632.632 0 0 0-.884.11l-.054.069a.629.629 0 0 0-1.18.431l.25.755-.502.638-.3-1.496a.63.63 0 0 0-1.234.25l.51 2.55-.124.158-.544-.631a.63.63 0 0 0-.956.819l.708.82-.619.787-1.782-.238-.376-.93.911-.596a.627.627 0 1 0-.689-1.047l-.7.46-.075-.187 1.206-2.312a.624.624 0 0 0-.268-.845.632.632 0 0 0-.849.27l-.708 1.357-.303-.75.451-.657a.625.625 0 0 0-.163-.871.63.63 0 0 0-.85.136l-.033-.08a.628.628 0 0 0-.818-.345.628.628 0 0 0-.35.816l.034.083a.628.628 0 0 0-.325.035.624.624 0 0 0 .106 1.195l.78.16.303.75-1.451-.485a.63.63 0 0 0-.799.396.624.624 0 0 0 .395.793l2.474.826.075.186-.822.156a.629.629 0 0 0-.503.733c.063.34.391.564.733.499l1.07-.203.376.93-1.117 1.409-.992-.136-.06-1.082a.63.63 0 1 0-1.257.075l.047.832-.2-.028-1.403-2.19a.63.63 0 0 0-1.062.679l.823 1.284-.804-.11-.344-.716a.629.629 0 0 0-1.149.509l-.086-.012a.632.632 0 0 0-.712.535.624.624 0 0 0 .534.706zm10.568-.746l.666 1.65-1.125 1.42-1.795-.24-.666-1.65 1.124-1.42 1.796.24zm-65.942 26.333l.058-.02a.435.435 0 0 0 .012.226.434.434 0 0 0 .302.28.44.44 0 0 0 .534-.313l.142-.537.534-.185-.395.992a.436.436 0 1 0 .813.32l.672-1.69.133-.046.076.576a.434.434 0 0 0 .49.373.44.44 0 0 0 .376-.492l-.1-.75.651-.226.947.824-.133.675-.756.006a.44.44 0 0 0-.436.44.434.434 0 0 0 .438.434l.582-.004-.028.137-1.58.901a.439.439 0 0 0-.165.597.434.434 0 0 0 .596.163l.927-.529-.11.555-.511.215a.44.44 0 0 0-.236.573.432.432 0 0 0 .546.24l-.012.061a.435.435 0 0 0 .344.512.44.44 0 0 0 .513-.347l.012-.06a.437.437 0 0 0 .595-.64l-.393-.39.11-.554.659.833a.438.438 0 0 0 .687-.545l-1.124-1.42.027-.138.538.22a.438.438 0 0 0 .333-.81l-.698-.286.135-.684 1.181-.415.527.458-.377.659a.436.436 0 1 0 .759.43l.289-.505.105.091-.017 1.816a.434.434 0 0 0 .433.439.44.44 0 0 0 .441-.436l.01-1.065.425.37-.072.55a.435.435 0 0 0 .377.488c.23.029.44-.128.484-.353l.046.04a.437.437 0 0 0 .575-.662l-.046-.04a.439.439 0 0 0 .283-.528.435.435 0 0 0-.537-.305l-.534.148-.425-.37 1.053-.158a.44.44 0 0 0 .37-.498.434.434 0 0 0-.495-.367l-1.795.27-.106-.092.461-.357a.436.436 0 1 0-.533-.69l-.599.463-.526-.457.247-1.228.658-.229.38.652a.438.438 0 0 0 .756-.443l-.292-.501.132-.046 1.562.914a.439.439 0 0 0 .445-.756l-.917-.536.534-.186.44.335a.437.437 0 0 0 .551-.678l.057-.02a.44.44 0 0 0 .273-.557.435.435 0 0 0-.555-.27l-.06.02a.436.436 0 0 0-.01-.226.434.434 0 0 0-.303-.28.44.44 0 0 0-.534.313l-.142.537-.534.185.395-.992a.436.436 0 1 0-.813-.32l-.672 1.69-.132.046-.077-.577a.434.434 0 0 0-.49-.373.44.44 0 0 0-.376.493l.1.75-.65.226-.948-.824.133-.675.757-.006a.44.44 0 0 0 .435-.441.434.434 0 0 0-.438-.434l-.581.005.027-.138 1.58-.9a.439.439 0 0 0 .165-.598.433.433 0 0 0-.596-.163l-.927.53.11-.555.511-.215a.44.44 0 0 0 .236-.573.433.433 0 0 0-.32-.26.432.432 0 0 0-.225.02l.012-.061a.435.435 0 0 0-.345-.512.44.44 0 0 0-.513.347l-.012.06a.438.438 0 0 0-.595.64l.393.39-.11.554-.658-.833a.438.438 0 0 0-.687.545l1.123 1.42-.027.137-.538-.22a.438.438 0 0 0-.333.811l.698.285-.135.684-1.18.416-.527-.458.376-.659a.436.436 0 1 0-.758-.431l-.29.506-.105-.092.017-1.815a.435.435 0 0 0-.433-.44.44.44 0 0 0-.44.436l-.011 1.066-.425-.37.072-.55a.435.435 0 0 0-.86-.135l-.046-.04a.437.437 0 0 0-.576.662l.047.04a.437.437 0 0 0-.19.125.435.435 0 0 0 .443.708l.535-.148.424.37-1.053.158a.44.44 0 0 0-.37.498.434.434 0 0 0 .495.367l1.796-.27.105.092-.46.357a.438.438 0 0 0-.08.614.436.436 0 0 0 .612.077l.6-.465.526.458-.247 1.228-.658.229-.38-.652a.438.438 0 1 0-.756.443l.292.502-.132.046-1.563-.915a.438.438 0 0 0-.444.756l.917.537-.534.185-.44-.335a.438.438 0 0 0-.551.679l-.058.02a.44.44 0 0 0-.272.556.435.435 0 0 0 .555.27zm6.318-3.803l.935.813-.25 1.236-1.189.418-.934-.812.249-1.236 1.189-.419zm21.889 5.319l.054.03a.435.435 0 0 0-.163.158.434.434 0 0 0-.014.412.44.44 0 0 0 .587.198l.498-.245.49.281-1.007.353a.436.436 0 1 0 .292.823l1.716-.601.122.07-.385.435a.434.434 0 0 0 .04.615.44.44 0 0 0 .618-.04l.5-.566.598.342v1.256l-.597.342-.5-.567a.44.44 0 0 0-.62-.04.434.434 0 0 0-.04.616l.386.435-.122.07-1.716-.601a.439.439 0 0 0-.56.267.434.434 0 0 0 .268.556l1.008.353-.49.281-.499-.245a.44.44 0 0 0-.587.198.432.432 0 0 0 .177.569l-.054.031a.435.435 0 0 0-.16.596.44.44 0 0 0 .599.16l.052-.03a.437.437 0 0 0 .874.029l.036-.552.49-.282-.196 1.044a.438.438 0 0 0 .862.16l.334-1.778.122-.07.187.55a.438.438 0 0 0 .83-.28l-.243-.715.605-.346 1.088.619v.697l-.743.148a.436.436 0 1 0 .172.856l.571-.114v.14l-1.381 1.177a.434.434 0 0 0-.048.615.44.44 0 0 0 .619.047l.81-.69v.562l-.462.307a.435.435 0 0 0-.122.605c.13.193.386.248.584.133v.06a.437.437 0 0 0 .877 0v-.06a.435.435 0 1 0 .462-.738l-.462-.307v-.563l.811.692a.44.44 0 0 0 .618-.048.434.434 0 0 0-.047-.615l-1.382-1.178v-.14l.572.114a.436.436 0 1 0 .172-.855l-.744-.148v-.697l1.089-.619.604.346-.243.715a.438.438 0 0 0 .83.28l.188-.55.122.07.334 1.78a.439.439 0 0 0 .862-.161l-.196-1.045.49.282.036.552a.437.437 0 0 0 .874-.03l.052.03a.44.44 0 0 0 .6-.16.435.435 0 0 0-.161-.595l-.054-.031a.436.436 0 0 0 .163-.157.434.434 0 0 0 .014-.412.44.44 0 0 0-.588-.198l-.498.245-.49-.281 1.008-.353a.436.436 0 1 0-.292-.823l-1.716.601-.122-.07.385-.435a.434.434 0 0 0-.04-.615.44.44 0 0 0-.618.04l-.501.566-.597-.342v-1.256l.597-.342.5.567a.44.44 0 0 0 .62.04.434.434 0 0 0 .04-.616l-.386-.435.122-.07 1.716.6a.44.44 0 0 0 .56-.266.433.433 0 0 0-.268-.556l-1.008-.353.49-.282.498.246a.44.44 0 0 0 .588-.198.433.433 0 0 0-.014-.412.432.432 0 0 0-.163-.157l.054-.031a.435.435 0 0 0 .16-.596.44.44 0 0 0-.599-.16l-.053.03a.438.438 0 0 0-.874-.03l-.035.553-.49.282.196-1.044a.438.438 0 0 0-.862-.16l-.335 1.778-.121.07-.187-.55a.438.438 0 0 0-.83.28l.242.714-.604.347-1.089-.619v-.698l.744-.147a.436.436 0 1 0-.172-.856l-.572.114v-.14l1.382-1.177a.435.435 0 0 0 .047-.615.44.44 0 0 0-.618-.048l-.81.691v-.562l.462-.307a.435.435 0 0 0-.463-.738v-.061a.437.437 0 0 0-.877 0v.062a.437.437 0 0 0-.218-.062.435.435 0 0 0-.244.799l.462.307v.562l-.81-.69a.44.44 0 0 0-.619.046.434.434 0 0 0 .048.615l1.381 1.178v.14l-.571-.113a.438.438 0 0 0-.516.342.436.436 0 0 0 .344.513l.743.147v.698l-1.088.62-.605-.347.243-.715a.438.438 0 1 0-.83-.28l-.187.55-.122-.07-.335-1.779a.438.438 0 0 0-.862.161l.197 1.044-.49-.281-.036-.552a.438.438 0 0 0-.874.029l-.053-.03a.44.44 0 0 0-.599.16.435.435 0 0 0 .161.595zm7.015 2.274v1.238l-1.096.623-1.096-.623v-1.238l1.096-.623 1.096.623z" fill="#FFF"/><path d="M314.547 263.427l-.095-.013a.672.672 0 0 0 .144-.32.658.658 0 0 0-.217-.593.687.687 0 0 0-.959.06l-.576.639-.867-.115 1.247-1.087a.675.675 0 0 0 .226-.411.657.657 0 0 0-.16-.536.684.684 0 0 0-.958-.054l-2.125 1.853-.216-.028.304-.844a.66.66 0 0 0-.41-.851.689.689 0 0 0-.868.416l-.395 1.097-1.057-.14-.721-1.784.663-.835 1.046.515a.689.689 0 0 0 .914-.303.66.66 0 0 0-.296-.898l-.805-.396.135-.17 2.816-.143a.684.684 0 0 0 .652-.705.658.658 0 0 0-.257-.496.676.676 0 0 0-.448-.139l-1.653.085.544-.686.858.059a.687.687 0 0 0 .732-.623.656.656 0 0 0-.582-.706l.06-.076a.662.662 0 0 0-.111-.94.687.687 0 0 0-.954.121l-.058.074a.672.672 0 0 0-.839-.383.676.676 0 0 0-.436.85l.265.805-.544.686-.317-1.6a.67.67 0 0 0-.796-.519.68.68 0 0 0-.537.793l.54 2.724-.135.17-.584-.672a.682.682 0 0 0-.957-.066.666.666 0 0 0-.078.947l.76.874-.672.844-1.922-.247-.401-.992.986-.643a.669.669 0 0 0 .2-.93.68.68 0 0 0-.94-.186l-.757.495-.08-.2 1.312-2.477a.66.66 0 0 0-.285-.902.69.69 0 0 0-.917.292l-.77 1.454-.324-.8.49-.705a.661.661 0 0 0-.172-.93.685.685 0 0 0-.918.15l-.035-.087a.675.675 0 0 0-.881-.365.675.675 0 0 0-.381.875l.035.086a.686.686 0 0 0-.764.53.661.661 0 0 0 .522.79l.842.166.323.8-1.564-.511a.69.69 0 0 0-.862.427.66.66 0 0 0 .421.846l2.665.872.08.199-.888.17a.68.68 0 0 0-.546.787.67.67 0 0 0 .79.53l1.156-.223.4.992-1.211 1.513-1.07-.141-.06-1.157a.666.666 0 0 0-.713-.627.682.682 0 0 0-.643.712l.046.89-.215-.029-1.504-2.334a.68.68 0 0 0-.937-.198.67.67 0 0 0-.212.927l.883 1.37-.867-.115-.369-.763a.676.676 0 0 0-.904-.308.672.672 0 0 0-.338.857l-.092-.012a.688.688 0 0 0-.77.576.662.662 0 0 0 .572.753l.096.013a.673.673 0 0 0-.145.32.658.658 0 0 0 .217.593.687.687 0 0 0 .96-.06l.576-.64.867.116-1.248 1.088a.675.675 0 0 0-.225.41.658.658 0 0 0 .16.536c.246.277.675.3.957.054l2.126-1.853.215.029-.304.843a.66.66 0 0 0 .41.851.689.689 0 0 0 .869-.416l.395-1.097 1.056.14.721 1.784-.663.834-1.046-.514a.689.689 0 0 0-.913.303.66.66 0 0 0 .296.898l.804.396-.135.17-2.816.144a.684.684 0 0 0-.652.704.657.657 0 0 0 .258.496.674.674 0 0 0 .447.14l1.653-.085-.543.685-.859-.059a.687.687 0 0 0-.731.623.657.657 0 0 0 .582.706l-.06.076a.662.662 0 0 0 .11.94.688.688 0 0 0 .954-.121l.059-.074c.13.325.496.497.839.383a.677.677 0 0 0 .436-.85l-.265-.805.544-.685.316 1.598a.67.67 0 0 0 .797.52.68.68 0 0 0 .537-.793l-.54-2.724.135-.17.584.672a.683.683 0 0 0 .958.066.666.666 0 0 0 .077-.946l-.76-.874.672-.845 1.921.247.401.992-.985.643a.67.67 0 0 0-.2.93.679.679 0 0 0 .939.186l.757-.495.08.2-1.312 2.477a.66.66 0 0 0 .285.902.69.69 0 0 0 .917-.292l.77-1.454.324.8-.49.705a.662.662 0 0 0 .173.93c.296.199.697.13.917-.15l.035.087a.675.675 0 0 0 .882.365.675.675 0 0 0 .38-.875l-.035-.088a.685.685 0 0 0 .35-.04.684.684 0 0 0 .414-.488.661.661 0 0 0-.522-.789l-.842-.167-.323-.8 1.564.511a.687.687 0 0 0 .863-.427.66.66 0 0 0-.422-.847l-2.665-.87-.08-.2.888-.17a.678.678 0 0 0 .547-.786.67.67 0 0 0-.79-.53l-1.156.222-.401-.992 1.211-1.513 1.07.14.06 1.158c.02.37.34.65.714.626a.682.682 0 0 0 .643-.712l-.047-.89.216.029 1.503 2.334c.2.311.62.4.937.198a.67.67 0 0 0 .212-.927l-.882-1.37.867.115.368.763c.16.333.566.47.904.308a.672.672 0 0 0 .338-.858l.093.013a.688.688 0 0 0 .77-.575.662.662 0 0 0-.573-.753zm-11.405.847l-.711-1.761 1.22-1.523 1.935.248.712 1.76-1.22 1.524-1.936-.248zm-61.541-28.178l-.063.022a.458.458 0 0 0-.333-.543.478.478 0 0 0-.576.34l-.156.579-.574.202.43-1.068a.47.47 0 0 0 .01-.326.457.457 0 0 0-.268-.282.476.476 0 0 0-.611.27l-.733 1.82-.143.05-.078-.619a.46.46 0 0 0-.524-.398.48.48 0 0 0-.406.533l.101.805-.7.247-1.01-.879.147-.727.812-.011a.48.48 0 0 0 .47-.477.46.46 0 0 0-.467-.464l-.624.01.03-.149 1.702-.979a.476.476 0 0 0 .181-.643.458.458 0 0 0-.316-.226.47.47 0 0 0-.322.055l-.998.575.12-.597.551-.235a.478.478 0 0 0 .257-.617.457.457 0 0 0-.584-.255l.013-.065a.461.461 0 0 0-.366-.549.478.478 0 0 0-.553.377l-.013.064a.468.468 0 0 0-.64.028.47.47 0 0 0-.003.665l.42.415-.122.597-.702-.89a.466.466 0 0 0-.658-.072.474.474 0 0 0-.082.662l1.196 1.519-.03.148-.575-.233a.475.475 0 0 0-.614.262.463.463 0 0 0 .25.612l.748.302-.15.736-1.27.454-.562-.488.408-.71a.466.466 0 0 0-.17-.64.473.473 0 0 0-.641.18l-.314.547-.112-.098.03-1.952a.46.46 0 0 0-.461-.47.48.48 0 0 0-.477.472l-.018 1.145-.454-.394.081-.592a.46.46 0 0 0-.4-.523.477.477 0 0 0-.522.383l-.05-.042a.47.47 0 0 0-.662.052.47.47 0 0 0 .04.663l.05.043a.478.478 0 0 0-.307.57.46.46 0 0 0 .574.324l.575-.163.453.395-1.132.177a.48.48 0 0 0-.4.537.46.46 0 0 0 .53.392l1.928-.302.112.098-.497.387a.474.474 0 0 0-.09.66c.157.204.451.24.658.08l.646-.504.562.489-.273 1.32-.708.251-.404-.698a.464.464 0 0 0-.64-.163.475.475 0 0 0-.174.644l.31.538-.142.05-1.671-.973a.474.474 0 0 0-.644.173.467.467 0 0 0 .162.643l.98.57-.574.203-.47-.357a.47.47 0 0 0-.658.095.468.468 0 0 0 .062.638l-.061.022a.479.479 0 0 0-.296.6.461.461 0 0 0 .593.287l.064-.022a.458.458 0 0 0 .333.543.478.478 0 0 0 .575-.34l.156-.579.575-.203-.43 1.07a.47.47 0 0 0-.01.325.453.453 0 0 0 .268.282.476.476 0 0 0 .611-.269l.733-1.821.142-.05.078.619a.46.46 0 0 0 .524.398.48.48 0 0 0 .407-.532l-.102-.806.7-.247 1.01.879-.147.727-.811.011a.48.48 0 0 0-.471.477.46.46 0 0 0 .467.463l.624-.008-.03.148-1.7.979a.476.476 0 0 0-.182.643.457.457 0 0 0 .316.226c.106.02.22.003.322-.055l.998-.575-.12.597-.551.235a.478.478 0 0 0-.258.617.457.457 0 0 0 .585.255l-.014.065a.462.462 0 0 0 .366.549.479.479 0 0 0 .554-.377l.012-.065a.47.47 0 0 0 .642-.027.471.471 0 0 0 .002-.665l-.42-.416.122-.597.701.892c.16.202.454.233.659.07a.474.474 0 0 0 .082-.661l-1.196-1.519.03-.148.575.232a.475.475 0 0 0 .615-.262.463.463 0 0 0-.251-.61l-.748-.303.15-.736 1.27-.454.562.488-.408.71a.466.466 0 0 0 .17.64.473.473 0 0 0 .64-.18l.314-.547.113.098-.03 1.952a.46.46 0 0 0 .46.47.48.48 0 0 0 .477-.472l.019-1.145.453.394-.08.592a.46.46 0 0 0 .4.522c.247.03.473-.14.522-.382l.049.042a.47.47 0 0 0 .662-.052.47.47 0 0 0-.04-.663l-.05-.044a.476.476 0 0 0 .308-.569.46.46 0 0 0-.574-.324l-.575.163-.454-.395 1.132-.177a.478.478 0 0 0 .4-.537.46.46 0 0 0-.529-.392l-1.928.302-.113-.098.497-.387a.472.472 0 0 0 .09-.66.466.466 0 0 0-.657-.08l-.646.504-.563-.489.274-1.32.708-.252.403.699a.464.464 0 0 0 .64.163.475.475 0 0 0 .174-.645l-.31-.537.143-.05 1.67.972c.222.13.51.052.644-.173a.466.466 0 0 0-.162-.642l-.98-.571.574-.203.47.357a.47.47 0 0 0 .658-.094.468.468 0 0 0-.062-.64l.062-.02a.479.479 0 0 0 .296-.6.461.461 0 0 0-.594-.287zm-6.806 4.13l-.998-.867.276-1.33 1.279-.459.997.868-.275 1.33-1.279.458zm37.005-5.688l-.06-.034a.458.458 0 0 0 .191-.608.478.478 0 0 0-.634-.21l-.538.261-.53-.3 1.09-.377a.47.47 0 0 0 .252-.206.457.457 0 0 0 .036-.388.476.476 0 0 0-.604-.284l-1.855.642-.132-.075.417-.465a.46.46 0 0 0-.043-.657.48.48 0 0 0-.67.043l-.54.604-.646-.365v-1.34l.646-.365.54.605a.48.48 0 0 0 .67.042.46.46 0 0 0 .043-.657l-.417-.465.132-.074 1.855.641a.476.476 0 0 0 .604-.284.458.458 0 0 0-.036-.388.47.47 0 0 0-.253-.206l-1.089-.377.53-.3.538.261c.235.114.519.02.635-.21a.457.457 0 0 0-.191-.608l.058-.034a.461.461 0 0 0 .174-.636.478.478 0 0 0-.648-.17l-.057.032c0-.244-.19-.45-.441-.465a.47.47 0 0 0-.503.434l-.039.59-.53.3.213-1.115a.466.466 0 0 0-.38-.543.474.474 0 0 0-.552.372l-.362 1.9-.131.074-.202-.587a.475.475 0 0 0-.6-.291.464.464 0 0 0-.298.59l.262.762-.653.37-1.176-.66v-.745l.804-.158a.466.466 0 0 0 .371-.548.473.473 0 0 0-.558-.365l-.617.121v-.149l1.493-1.257a.46.46 0 0 0 .051-.657.48.48 0 0 0-.668-.05l-.876.738v-.601l.5-.328a.46.46 0 0 0 .13-.645.477.477 0 0 0-.63-.143v-.064a.47.47 0 0 0-.474-.466.47.47 0 0 0-.474.466v.064a.478.478 0 0 0-.631.143.46.46 0 0 0 .131.645l.5.328v.6l-.876-.737a.48.48 0 0 0-.669.05.46.46 0 0 0 .052.657l1.493 1.257v.15l-.618-.122a.474.474 0 0 0-.558.365.466.466 0 0 0 .372.548l.804.158v.744l-1.177.66-.653-.369.262-.763a.464.464 0 0 0-.296-.59.475.475 0 0 0-.601.292l-.202.586-.132-.074-.361-1.9a.474.474 0 0 0-.554-.371.467.467 0 0 0-.378.543l.212 1.114-.53-.3-.038-.589a.47.47 0 0 0-.504-.435.468.468 0 0 0-.441.466l-.057-.032a.479.479 0 0 0-.647.17.461.461 0 0 0 .173.636l.059.034a.458.458 0 0 0-.191.608c.115.23.4.324.634.21l.539-.261.53.3-1.09.377a.47.47 0 0 0-.252.206.458.458 0 0 0-.037.388c.087.242.358.37.604.284l1.855-.641.132.074-.416.465a.46.46 0 0 0 .043.657.48.48 0 0 0 .669-.042l.54-.605.646.365v1.34l-.645.365-.541-.605a.48.48 0 0 0-.669-.042.46.46 0 0 0-.043.657l.416.465-.132.074-1.855-.641a.476.476 0 0 0-.604.285.457.457 0 0 0 .037.387.472.472 0 0 0 .253.206l1.088.377-.53.3-.538-.261a.478.478 0 0 0-.635.21.457.457 0 0 0 .192.608l-.059.034a.461.461 0 0 0-.173.635c.13.223.42.3.647.17l.057-.032c0 .244.19.45.442.466a.471.471 0 0 0 .503-.435l.039-.588.53-.3-.213 1.114a.466.466 0 0 0 .379.543.474.474 0 0 0 .553-.372l.362-1.9.131-.074.202.587a.475.475 0 0 0 .6.292.463.463 0 0 0 .298-.59l-.263-.763.654-.37 1.176.66v.745l-.804.158a.466.466 0 0 0-.372.548.473.473 0 0 0 .558.365l.618-.121v.149l-1.493 1.257a.46.46 0 0 0-.052.657.48.48 0 0 0 .668.05l.877-.738v.601l-.5.327a.46.46 0 0 0-.131.646c.14.206.416.265.63.143v.064a.47.47 0 0 0 .475.466.47.47 0 0 0 .474-.466v-.066a.476.476 0 0 0 .631-.141.46.46 0 0 0-.132-.646l-.5-.327v-.6l.877.737a.478.478 0 0 0 .668-.05.46.46 0 0 0-.051-.657l-1.493-1.257v-.15l.617.122a.472.472 0 0 0 .558-.365.466.466 0 0 0-.371-.548l-.804-.158v-.745l1.176-.66.654.37-.263.762a.464.464 0 0 0 .297.59.475.475 0 0 0 .601-.291l.202-.587.131.075.362 1.899a.474.474 0 0 0 .553.372.466.466 0 0 0 .379-.544l-.213-1.114.53.3.039.59a.471.471 0 0 0 .503.434.468.468 0 0 0 .442-.466l.056.033a.479.479 0 0 0 .648-.17.461.461 0 0 0-.174-.636zm-7.583-2.428v-1.322l1.185-.665 1.184.665v1.322l-1.184.665-1.185-.665zm-15.288 123.096l-.111-.015a.78.78 0 0 0 .168-.37.764.764 0 0 0-.252-.69.798.798 0 0 0-1.114.07l-.67.742-1.007-.134 1.45-1.263a.778.778 0 0 0 .26-.477.763.763 0 0 0-.184-.622.794.794 0 0 0-1.114-.063l-2.469 2.153-.25-.033.353-.98a.767.767 0 0 0-.477-.99.8.8 0 0 0-1.008.484l-.459 1.274-1.227-.162-.838-2.073.77-.969 1.216.598a.8.8 0 0 0 1.06-.353.767.767 0 0 0-.343-1.043l-.934-.459.156-.198 3.272-.166a.794.794 0 0 0 .757-.818.764.764 0 0 0-.299-.577.785.785 0 0 0-.52-.161l-1.92.098.632-.797.996.069a.798.798 0 0 0 .85-.724.762.762 0 0 0-.675-.82l.07-.088a.77.77 0 0 0-.13-1.093.798.798 0 0 0-1.108.141l-.068.086a.78.78 0 0 0-.974-.444.786.786 0 0 0-.507.987l.308.935-.631.796-.369-1.857a.778.778 0 0 0-.925-.604.79.79 0 0 0-.623.921l.627 3.165-.157.198-.679-.782a.793.793 0 0 0-1.112-.076.774.774 0 0 0-.09 1.1l.883 1.015-.78.981-2.234-.287-.465-1.153 1.145-.746a.777.777 0 0 0 .232-1.08.79.79 0 0 0-1.09-.217l-.88.575-.094-.231 1.524-2.879a.767.767 0 0 0-.33-1.048.8.8 0 0 0-1.066.34l-.895 1.689-.375-.93.568-.818a.768.768 0 0 0-.2-1.081.796.796 0 0 0-1.066.173l-.04-.1a.784.784 0 0 0-1.024-.424.784.784 0 0 0-.443 1.017l.04.1a.797.797 0 0 0-.887.615.768.768 0 0 0 .607.917l.978.194.376.93-1.817-.595a.8.8 0 0 0-1.002.496.767.767 0 0 0 .49.984l3.096 1.012.093.231-1.032.199a.79.79 0 0 0-.634.913.777.777 0 0 0 .917.615l1.342-.258.466 1.152-1.407 1.758-1.243-.164-.07-1.344a.774.774 0 0 0-.829-.728.793.793 0 0 0-.747.827l.054 1.034-.25-.034-1.747-2.712a.79.79 0 0 0-1.088-.23.779.779 0 0 0-.246 1.078l1.025 1.592-1.007-.134-.429-.887a.785.785 0 0 0-1.05-.358.78.78 0 0 0-.392.996l-.108-.014a.799.799 0 0 0-.895.669.77.77 0 0 0 .666.875l.111.015a.781.781 0 0 0-.168.37.767.767 0 0 0 .252.69.798.798 0 0 0 1.114-.07l.67-.742 1.007.134-1.449 1.264a.785.785 0 0 0-.262.477.764.764 0 0 0 .185.622.795.795 0 0 0 1.113.063l2.47-2.153.25.033-.354.98a.767.767 0 0 0 .477.99.8.8 0 0 0 1.009-.484l.459-1.275 1.227.162.838 2.073-.77.969-1.216-.597a.8.8 0 0 0-1.061.352.767.767 0 0 0 .344 1.043l.934.46-.157.197-3.27.167a.794.794 0 0 0-.758.819.762.762 0 0 0 .299.576c.142.11.324.171.52.162l1.92-.099-.632.796-.996-.068a.798.798 0 0 0-.85.724.763.763 0 0 0 .297.67.776.776 0 0 0 .378.15l-.07.088a.77.77 0 0 0 .13 1.092c.341.263.837.2 1.108-.14l.068-.087a.78.78 0 0 0 .974.445.786.786 0 0 0 .507-.987l-.308-.936.632-.795.368 1.857a.778.778 0 0 0 .925.603.79.79 0 0 0 .623-.92l-.627-3.165.157-.198.68.782c.28.326.78.358 1.111.076a.773.773 0 0 0 .09-1.1l-.882-1.015.78-.981 2.232.286.466 1.153-1.145.747a.778.778 0 0 0-.233 1.08.789.789 0 0 0 1.091.216l.88-.574.094.23-1.525 2.88a.768.768 0 0 0 .33 1.047.8.8 0 0 0 1.066-.34l.895-1.688.376.93-.569.818a.769.769 0 0 0 .2 1.081c.345.23.81.15 1.066-.174l.04.1a.784.784 0 0 0 1.025.424.784.784 0 0 0 .442-1.016l-.041-.103c.141.02.281.006.407-.045a.794.794 0 0 0 .481-.568.768.768 0 0 0-.607-.916l-.978-.194-.375-.93 1.817.594a.798.798 0 0 0 1.002-.496.767.767 0 0 0-.49-.983l-3.096-1.013-.093-.23 1.031-.199a.787.787 0 0 0 .635-.913.777.777 0 0 0-.917-.616l-1.343.259-.466-1.153 1.408-1.757 1.243.163.07 1.344c.023.43.394.755.829.728a.793.793 0 0 0 .747-.827l-.055-1.034.25.033 1.747 2.712a.79.79 0 0 0 1.089.23.778.778 0 0 0 .246-1.077l-1.025-1.592 1.007.134.428.887a.786.786 0 0 0 1.05.357.78.78 0 0 0 .392-.996l.109.015a.799.799 0 0 0 .895-.669.77.77 0 0 0-.666-.875zm-13.25.984l-.826-2.045 1.417-1.77 2.25.289.826 2.045-1.418 1.77-2.248-.289zm-110.485-50.584l-.064.022a.458.458 0 0 0-.333-.543.478.478 0 0 0-.576.341l-.155.578-.575.203.43-1.07a.47.47 0 0 0 .01-.325.457.457 0 0 0-.268-.282.476.476 0 0 0-.611.27l-.733 1.82-.142.05-.078-.618a.46.46 0 0 0-.524-.398.48.48 0 0 0-.407.532l.102.805-.7.247-1.01-.879.147-.727.811-.011a.48.48 0 0 0 .471-.477.46.46 0 0 0-.467-.463l-.624.009.03-.149 1.701-.978a.476.476 0 0 0 .182-.643.458.458 0 0 0-.317-.227.47.47 0 0 0-.321.055l-.999.575.12-.597.552-.235a.478.478 0 0 0 .257-.617.457.457 0 0 0-.584-.254l.013-.066a.461.461 0 0 0-.366-.548.478.478 0 0 0-.554.376l-.013.065a.468.468 0 0 0-.64.027.47.47 0 0 0-.003.665l.42.416-.121.597-.702-.892a.466.466 0 0 0-.659-.07.474.474 0 0 0-.082.661l1.196 1.519-.03.148-.575-.232a.475.475 0 0 0-.614.262c-.1.241.012.515.25.611l.748.302-.15.736-1.27.455-.562-.49.408-.71a.466.466 0 0 0-.17-.64.473.473 0 0 0-.64.182l-.314.546-.113-.098.03-1.952a.46.46 0 0 0-.461-.47.48.48 0 0 0-.476.472l-.019 1.145-.453-.394.08-.592a.46.46 0 0 0-.4-.522.477.477 0 0 0-.522.382l-.049-.042a.47.47 0 0 0-.662.052.47.47 0 0 0 .04.663l.05.043a.478.478 0 0 0-.307.57.46.46 0 0 0 .573.324l.575-.162.453.394-1.131.177a.48.48 0 0 0-.4.537.46.46 0 0 0 .529.392l1.928-.302.113.098-.497.387a.474.474 0 0 0-.09.66c.156.205.45.24.657.08l.646-.504.562.489-.273 1.32-.708.251-.403-.698a.464.464 0 0 0-.64-.163.475.475 0 0 0-.174.644l.31.538-.143.05-1.67-.973a.474.474 0 0 0-.644.174.467.467 0 0 0 .162.642l.98.57-.574.203-.47-.357a.47.47 0 0 0-.658.095.468.468 0 0 0 .061.638l-.061.022a.479.479 0 0 0-.296.6.461.461 0 0 0 .594.287l.063-.022a.458.458 0 0 0 .333.543.478.478 0 0 0 .576-.34l.156-.579.574-.202-.43 1.068a.47.47 0 0 0-.01.327.46.46 0 0 0 .268.282.476.476 0 0 0 .612-.27l.732-1.82.143-.051.078.619a.46.46 0 0 0 .524.398.48.48 0 0 0 .406-.532l-.101-.806.699-.247 1.011.88-.148.726-.811.012a.48.48 0 0 0-.47.476.46.46 0 0 0 .467.464l.624-.01-.03.149-1.701.98a.476.476 0 0 0-.182.642.459.459 0 0 0 .638.171l.998-.575-.12.597-.551.235a.478.478 0 0 0-.257.618.457.457 0 0 0 .584.254l-.013.066c-.052.255.112.5.366.548a.479.479 0 0 0 .553-.377l.013-.064c.184.16.464.151.641-.028a.471.471 0 0 0 .002-.665l-.419-.416.121-.596.702.891c.16.202.454.234.658.07a.474.474 0 0 0 .082-.66l-1.196-1.52.03-.148.576.232a.475.475 0 0 0 .614-.261.463.463 0 0 0-.25-.612l-.748-.302.15-.736 1.269-.454.562.489-.408.71a.466.466 0 0 0 .17.64.473.473 0 0 0 .641-.182l.314-.546.112.098-.03 1.952a.46.46 0 0 0 .461.47.48.48 0 0 0 .477-.472l.018-1.145.454.394-.081.592a.46.46 0 0 0 .4.523c.247.03.474-.14.522-.383l.05.042a.47.47 0 0 0 .662-.052.47.47 0 0 0-.041-.663l-.05-.043a.476.476 0 0 0 .308-.569.46.46 0 0 0-.574-.325l-.575.163-.453-.394 1.132-.178a.478.478 0 0 0 .4-.537.46.46 0 0 0-.53-.392l-1.928.302-.112-.098.496-.387a.472.472 0 0 0 .09-.66.466.466 0 0 0-.656-.079l-.647.503-.562-.489.273-1.32.708-.251.404.698a.464.464 0 0 0 .64.163.475.475 0 0 0 .174-.645l-.31-.537.142-.05 1.67.973c.223.13.511.051.644-.174a.466.466 0 0 0-.162-.642l-.98-.57.574-.204.47.358c.205.155.5.113.658-.095a.468.468 0 0 0-.062-.639l.062-.021a.479.479 0 0 0 .296-.6.461.461 0 0 0-.593-.287zm-6.807 4.13l-.997-.867.275-1.33 1.28-.458.997.867-.276 1.33-1.279.458zm41.961.894l-.058-.034a.458.458 0 0 0 .191-.608.478.478 0 0 0-.634-.21l-.539.261-.53-.3 1.09-.377a.47.47 0 0 0 .252-.206.457.457 0 0 0 .037-.388.476.476 0 0 0-.605-.284l-1.855.641-.131-.074.416-.465a.46.46 0 0 0-.043-.657.48.48 0 0 0-.669.042l-.54.605-.647-.365v-1.34l.646-.366.541.605a.48.48 0 0 0 .669.043.46.46 0 0 0 .043-.657l-.416-.465.131-.074 1.855.641a.476.476 0 0 0 .605-.284.458.458 0 0 0-.037-.388.47.47 0 0 0-.253-.206l-1.089-.377.53-.3.539.261c.234.114.518.02.634-.21a.457.457 0 0 0-.19-.608l.057-.034a.461.461 0 0 0 .174-.636.478.478 0 0 0-.648-.17l-.056.032a.468.468 0 0 0-.442-.465.47.47 0 0 0-.503.434l-.039.59-.53.3.213-1.115a.466.466 0 0 0-.379-.543.474.474 0 0 0-.553.372l-.362 1.899-.131.075-.202-.587a.475.475 0 0 0-.6-.292.464.464 0 0 0-.298.59l.263.763-.654.37-1.176-.66v-.746l.804-.157a.466.466 0 0 0 .371-.548.473.473 0 0 0-.557-.365l-.618.121v-.15l1.493-1.256a.46.46 0 0 0 .051-.657.48.48 0 0 0-.668-.05l-.876.737v-.6l.5-.328a.46.46 0 0 0 .131-.645.477.477 0 0 0-.631-.143v-.065a.47.47 0 0 0-.474-.465.47.47 0 0 0-.474.465v.065a.478.478 0 0 0-.631.143.46.46 0 0 0 .131.645l.5.328v.6l-.876-.738a.48.48 0 0 0-.668.051.46.46 0 0 0 .051.656l1.493 1.258v.15l-.618-.122a.474.474 0 0 0-.557.365.466.466 0 0 0 .371.548l.804.157v.745l-1.176.66-.654-.37.263-.762a.464.464 0 0 0-.297-.59.475.475 0 0 0-.6.292l-.203.586-.131-.075-.362-1.899a.474.474 0 0 0-.553-.372.467.467 0 0 0-.379.544l.212 1.114-.53-.3-.038-.59a.47.47 0 0 0-.503-.434.468.468 0 0 0-.442.466l-.057-.032a.479.479 0 0 0-.647.17.461.461 0 0 0 .174.636l.058.034a.458.458 0 0 0-.191.608c.116.23.4.324.634.21l.539-.261.53.3-1.09.377a.47.47 0 0 0-.252.206.458.458 0 0 0-.037.388c.087.242.358.37.605.284l1.855-.641.131.074-.416.465a.46.46 0 0 0 .043.657.48.48 0 0 0 .669-.043l.541-.605.646.366v1.34l-.646.365-.541-.605a.48.48 0 0 0-.669-.042.46.46 0 0 0-.043.657l.416.465-.131.074-1.855-.641a.476.476 0 0 0-.605.285.457.457 0 0 0 .037.387.472.472 0 0 0 .253.206l1.089.377-.53.3-.539-.261a.478.478 0 0 0-.634.21.457.457 0 0 0 .191.608l-.058.033a.461.461 0 0 0-.174.636c.13.223.42.3.647.17l.058-.032c0 .244.19.45.441.466a.471.471 0 0 0 .503-.435l.04-.589.529-.3-.213 1.114a.466.466 0 0 0 .379.544.474.474 0 0 0 .553-.372l.362-1.9.131-.074.202.587a.475.475 0 0 0 .601.292.463.463 0 0 0 .297-.59l-.263-.763.654-.37 1.176.66v.745l-.804.158a.466.466 0 0 0-.371.548.473.473 0 0 0 .557.365l.618-.122v.15l-1.493 1.257a.46.46 0 0 0-.052.656.48.48 0 0 0 .669.05l.876-.737v.601l-.5.327a.46.46 0 0 0-.131.646c.14.205.416.265.631.143v.064a.47.47 0 0 0 .474.466.47.47 0 0 0 .474-.466v-.066a.476.476 0 0 0 .631-.141.46.46 0 0 0-.131-.646l-.5-.327v-.6l.876.737a.478.478 0 0 0 .668-.05.46.46 0 0 0-.05-.657l-1.494-1.257v-.15l.618.122a.472.472 0 0 0 .558-.365.466.466 0 0 0-.372-.548l-.804-.158v-.745l1.176-.66.654.37-.263.762a.464.464 0 0 0 .298.59.475.475 0 0 0 .6-.291l.202-.587.132.074.361 1.9a.473.473 0 0 0 .553.371.466.466 0 0 0 .38-.543l-.213-1.114.53.3.038.59a.471.471 0 0 0 .503.434.468.468 0 0 0 .442-.466l.057.032a.479.479 0 0 0 .647-.17.461.461 0 0 0-.174-.636zm-7.582-2.428v-1.322l1.185-.665 1.185.665v1.322l-1.185.665-1.185-.665zm99.671-19.084l-.978-.558.586-.156a.538.538 0 0 0 .383-.655.542.542 0 0 0-.663-.379l-1.585.42 1.257-.82a.535.535 0 0 0 .154-.742.546.546 0 0 0-.75-.152l-1.743 1.137-.047-.028.294-.3a.532.532 0 0 0-.013-.758.547.547 0 0 0-.766.013l-.482.494-.934-.532h.684c.299 0 .541-.24.541-.536a.539.539 0 0 0-.541-.535h-.684l.934-.532.482.493c.208.212.55.218.766.012a.531.531 0 0 0 .013-.757l-.294-.3.047-.027 1.742 1.137c.25.163.586.095.75-.152a.53.53 0 0 0-.153-.742l-1.257-.82 1.585.42a.542.542 0 0 0 .663-.379.538.538 0 0 0-.383-.656l-.586-.155.978-.558a.532.532 0 0 0 .198-.732.545.545 0 0 0-.74-.195l-.978.558.157-.58a.534.534 0 0 0-.383-.656.542.542 0 0 0-.663.379l-.424 1.567-.09-1.487a.539.539 0 0 0-.574-.502.538.538 0 0 0-.508.566l.125 2.06-.047.027-.117-.402a.543.543 0 0 0-.67-.367.534.534 0 0 0-.371.662l.19.659-.938.535.345-.591a.532.532 0 0 0-.199-.731.544.544 0 0 0-.74.196l-.343.587v-1.064l.673-.166a.535.535 0 1 0-.263-1.039l-.41.101v-.054l1.867-.922a.533.533 0 0 0 .243-.719.545.545 0 0 0-.727-.24l-1.348.667 1.16-1.147a.531.531 0 0 0 0-.757.546.546 0 0 0-.765 0l-.43.424v-1.117a.539.539 0 0 0-.541-.535.539.539 0 0 0-.542.535v1.117l-.43-.424a.546.546 0 0 0-.765 0 .531.531 0 0 0 0 .757l1.16 1.147-1.348-.666a.545.545 0 0 0-.726.24.533.533 0 0 0 .242.718l1.867.922v.054l-.41-.101a.535.535 0 1 0-.263 1.039l.673.166v1.064l-.343-.588a.545.545 0 0 0-.74-.196.532.532 0 0 0-.198.732l.344.59-.938-.534.19-.66a.534.534 0 0 0-.371-.662.543.543 0 0 0-.67.368l-.116.402-.048-.027.125-2.06a.538.538 0 0 0-.508-.567.539.539 0 0 0-.573.502l-.09 1.488-.425-1.568a.542.542 0 0 0-.663-.378.534.534 0 0 0-.383.656l.157.58-.978-.559a.544.544 0 0 0-.74.196.532.532 0 0 0 .199.732l.978.558-.587.155a.538.538 0 0 0-.383.656.542.542 0 0 0 .663.378l1.586-.42-1.258.821a.535.535 0 0 0-.153.742.546.546 0 0 0 .75.152l1.742-1.138.048.027-.294.3a.532.532 0 0 0 .012.758c.216.205.558.2.766-.012l.482-.494.934.533h-.683a.539.539 0 0 0-.542.535.54.54 0 0 0 .542.536h.683l-.934.532-.482-.493a.547.547 0 0 0-.766-.013.532.532 0 0 0-.012.757l.294.3-.048.028-1.742-1.138a.546.546 0 0 0-.75.152.53.53 0 0 0 .153.742l1.258.82-1.586-.42a.542.542 0 0 0-.663.38.538.538 0 0 0 .383.656l.587.155-.978.558a.532.532 0 0 0-.199.731c.15.257.481.344.74.196l.978-.558-.157.58a.542.542 0 0 0 1.046.277l.425-1.567.09 1.487c.018.296.275.52.573.502a.537.537 0 0 0 .508-.566l-.125-2.06.048-.027.116.402a.542.542 0 0 0 1.042-.295l-.191-.66.938-.533-.344.59a.532.532 0 0 0 .198.731.543.543 0 0 0 .74-.196l.343-.587v1.064l-.673.166a.535.535 0 1 0 .263 1.039l.41-.102v.054l-1.867.923a.533.533 0 0 0-.242.719.544.544 0 0 0 .726.24l1.348-.667-1.16 1.147a.531.531 0 0 0 0 .757c.211.21.554.21.766 0l.43-.425v1.117c0 .296.242.536.54.536.3 0 .542-.24.542-.536v-1.117l.43.425a.543.543 0 0 0 .766 0 .531.531 0 0 0 0-.757L245.702 291l1.348.666a.542.542 0 0 0 .726-.24.533.533 0 0 0-.242-.718l-1.867-.923v-.054l.41.102a.54.54 0 0 0 .657-.39.535.535 0 0 0-.394-.65l-.673-.166v-1.064l.344.588a.543.543 0 0 0 .74.196.532.532 0 0 0 .198-.731l-.345-.59.939.534-.191.659a.534.534 0 0 0 .372.662.543.543 0 0 0 .67-.367l.116-.402.047.027-.125 2.06a.537.537 0 0 0 .508.566.539.539 0 0 0 .573-.502l.09-1.487.425 1.567a.542.542 0 0 0 1.046-.277l-.157-.58.978.558c.26.148.59.06.74-.196a.532.532 0 0 0-.198-.73zM14.712 255.406l-.067.009a.457.457 0 0 1-.05.637.483.483 0 0 1-.672-.044l-.405-.446-.607.08.876.76c.089.078.142.18.158.287a.456.456 0 0 1-.111.374.48.48 0 0 1-.672.037l-1.492-1.297-.15.02.213.589a.46.46 0 0 1-.287.594.485.485 0 0 1-.608-.292l-.279-.766-.74.096-.503 1.245.466.584.732-.359a.485.485 0 0 1 .641.214.459.459 0 0 1-.206.626l-.564.275.095.12 1.974.103a.48.48 0 0 1 .458.493.457.457 0 0 1-.18.346.474.474 0 0 1-.313.096l-1.159-.06.382.479.601-.04a.483.483 0 0 1 .514.436.456.456 0 0 1-.407.492l.042.053a.46.46 0 0 1-.076.657.483.483 0 0 1-.67-.086l-.04-.052a.47.47 0 0 1-.587.266.474.474 0 0 1-.307-.594l.185-.562-.382-.479-.22 1.116a.467.467 0 0 1-.558.362.477.477 0 0 1-.377-.554l.375-1.902-.095-.12-.41.47a.48.48 0 0 1-.67.044.464.464 0 0 1-.056-.66l.532-.61-.472-.59-1.347.17-.28.692.692.45c.22.143.284.434.141.65a.477.477 0 0 1-.658.128l-.531-.346-.056.139.923 1.732a.46.46 0 0 1-.199.63.485.485 0 0 1-.643-.206l-.542-1.016-.226.558.344.493a.46.46 0 0 1-.12.65.482.482 0 0 1-.642-.106l-.025.06a.472.472 0 0 1-.617.254.472.472 0 0 1-.268-.612l.024-.06a.483.483 0 0 1-.536-.37.46.46 0 0 1 .365-.551l.59-.116.226-.558-1.096.355a.485.485 0 0 1-.606-.3.46.46 0 0 1 .295-.59l1.867-.605.056-.139-.623-.12a.477.477 0 0 1-.384-.55.467.467 0 0 1 .554-.369l.81.157.28-.692-.852-1.058-.75.097-.04.808a.464.464 0 0 1-.5.436.48.48 0 0 1-.451-.498l.031-.621-.15.02-1.052 1.628a.477.477 0 0 1-.656.137.468.468 0 0 1-.15-.648l.617-.956-.608.08-.257.533a.474.474 0 0 1-.634.214.47.47 0 0 1-.237-.6l-.065.008a.484.484 0 0 1-.541-.402.46.46 0 0 1 .4-.526l.068-.009a.457.457 0 0 1 .05-.637.483.483 0 0 1 .672.044l.405.446.607-.08-.876-.76a.473.473 0 0 1-.158-.287.457.457 0 0 1 .11-.375.48.48 0 0 1 .672-.036l1.493 1.297.15-.02-.214-.59a.457.457 0 0 1 .287-.593.485.485 0 0 1 .61.292l.278.766.74-.096.503-1.245-.466-.583-.733.358a.485.485 0 0 1-.64-.213.46.46 0 0 1 .206-.627l.563-.275-.094-.12-1.974-.103a.48.48 0 0 1-.458-.493.456.456 0 0 1 .18-.346.475.475 0 0 1 .313-.097l1.159.061-.382-.479-.602.04a.483.483 0 0 1-.513-.436.456.456 0 0 1 .407-.492l-.043-.053a.46.46 0 0 1 .077-.657.484.484 0 0 1 .669.086l.041.052a.47.47 0 0 1 .587-.266c.25.083.388.35.307.594l-.184.562.382.479.22-1.116c.05-.253.3-.415.557-.362a.477.477 0 0 1 .377.555l-.375 1.901.095.119.41-.469a.48.48 0 0 1 .67-.044c.201.17.226.466.056.66l-.532.61.472.59 1.347-.17.28-.692-.692-.45a.467.467 0 0 1-.142-.65.476.476 0 0 1 .658-.128l.532.346.056-.139-.923-1.732a.46.46 0 0 1 .199-.63.485.485 0 0 1 .643.206l.542 1.016.225-.558-.344-.493a.46.46 0 0 1 .12-.65.483.483 0 0 1 .643.106l.024-.06a.472.472 0 0 1 .618-.254.472.472 0 0 1 .268.612l-.025.062a.48.48 0 0 1 .537.37.46.46 0 0 1-.365.55l-.59.115-.226.558 1.096-.355a.483.483 0 0 1 .606.3.46.46 0 0 1-.295.59l-1.867.605-.056.139.622.12a.475.475 0 0 1 .384.55.467.467 0 0 1-.552.369l-.81-.157-.28.693.85 1.057.75-.097.041-.807a.464.464 0 0 1 .5-.437.48.48 0 0 1 .451.498l-.032.622.151-.02 1.051-1.628a.477.477 0 0 1 .657-.137c.223.14.29.43.15.648l-.617.955.608-.08.257-.532a.474.474 0 0 1 .633-.214.47.47 0 0 1 .238.6l.065-.01a.484.484 0 0 1 .54.404.46.46 0 0 1-.4.525zm-7.996-.606l-.496 1.229.857 1.065 1.357-.171.496-1.229-.857-1.065-1.357.17zm49.974 19.682l-.045-.015a.318.318 0 0 1-.232.38.336.336 0 0 1-.403-.24l-.11-.405-.402-.143.303.749a.33.33 0 0 1 .007.228.318.318 0 0 1-.187.197.334.334 0 0 1-.428-.19l-.516-1.276-.1-.035-.053.433a.32.32 0 0 1-.366.278.338.338 0 0 1-.285-.374l.07-.563-.49-.174-.706.613.105.51.568.009a.338.338 0 0 1 .33.334.32.32 0 0 1-.326.324l-.437-.008.022.104 1.191.688a.334.334 0 0 1 .128.45.318.318 0 0 1-.22.159.33.33 0 0 1-.225-.04l-.7-.404.086.418.385.165a.336.336 0 0 1 .181.433.317.317 0 0 1-.408.177l.01.046a.32.32 0 0 1-.256.383.337.337 0 0 1-.387-.265l-.01-.044a.327.327 0 0 1-.448-.021.33.33 0 0 1-.002-.465l.292-.29-.086-.419-.489.623a.325.325 0 0 1-.46.048.332.332 0 0 1-.059-.463l.834-1.06-.021-.104-.402.161a.334.334 0 0 1-.43-.184.323.323 0 0 1 .174-.428l.522-.21-.106-.515-.89-.32-.391.34.286.498a.325.325 0 0 1-.117.448.332.332 0 0 1-.45-.128l-.22-.383-.078.068.025 1.366a.32.32 0 0 1-.322.328.338.338 0 0 1-.334-.33l-.015-.802-.316.275.057.414a.32.32 0 0 1-.28.365.336.336 0 0 1-.365-.268l-.034.03a.329.329 0 0 1-.463-.039.329.329 0 0 1 .027-.464l.034-.03a.336.336 0 0 1-.215-.399.32.32 0 0 1 .4-.226l.402.115.317-.275-.792-.126a.338.338 0 0 1-.28-.377.32.32 0 0 1 .369-.273l1.349.215.078-.069-.348-.271a.332.332 0 0 1-.064-.463.325.325 0 0 1 .46-.054l.452.354.393-.341-.194-.925-.496-.177-.28.488a.323.323 0 0 1-.448.113.334.334 0 0 1-.123-.451l.216-.376-.1-.035-1.166.677a.332.332 0 0 1-.45-.122.326.326 0 0 1 .111-.45l.685-.397-.402-.143-.328.25a.33.33 0 0 1-.46-.068.327.327 0 0 1 .041-.447l-.043-.016a.337.337 0 0 1-.208-.42.32.32 0 0 1 .415-.2l.044.016a.318.318 0 0 1 .232-.38.336.336 0 0 1 .404.24l.11.405.402.143-.303-.75a.33.33 0 0 1-.008-.227.318.318 0 0 1 .187-.197c.168-.065.36.02.429.19l.515 1.275.1.036.054-.433a.318.318 0 0 1 .365-.278c.18.026.308.193.286.373l-.07.564.49.174.705-.613-.104-.51-.568-.009a.338.338 0 0 1-.33-.334.32.32 0 0 1 .326-.324l.436.007-.021-.103-1.191-.689a.334.334 0 0 1-.129-.45.318.318 0 0 1 .221-.158.33.33 0 0 1 .225.04l.7.403-.086-.418-.385-.165a.336.336 0 0 1-.181-.433.318.318 0 0 1 .408-.176l-.01-.047a.32.32 0 0 1 .255-.382.337.337 0 0 1 .388.264l.009.045a.327.327 0 0 1 .448.02c.13.131.13.34.003.466l-.292.29.085.418.49-.622a.326.326 0 0 1 .46-.049c.143.115.17.322.059.464l-.834 1.06.021.104.402-.161a.334.334 0 0 1 .43.184.322.322 0 0 1-.174.427l-.522.21.106.516.889.32.392-.34-.287-.499a.325.325 0 0 1 .118-.447.332.332 0 0 1 .449.128l.22.383.079-.069-.026-1.366a.32.32 0 0 1 .323-.328c.18.001.33.15.334.331l.014.802.317-.275-.058-.415a.32.32 0 0 1 .28-.365.336.336 0 0 1 .365.27l.034-.03a.329.329 0 0 1 .464.037.329.329 0 0 1-.027.464l-.035.03a.334.334 0 0 1 .216.399.32.32 0 0 1-.4.226l-.403-.114-.316.275.792.126a.337.337 0 0 1 .28.377.32.32 0 0 1-.369.273l-1.35-.215-.078.068.348.272a.33.33 0 0 1 .065.462.325.325 0 0 1-.46.054l-.453-.353-.392.341.193.925.496.177.28-.488a.323.323 0 0 1 .448-.113.334.334 0 0 1 .123.452l-.216.375.1.036 1.167-.678a.332.332 0 0 1 .45.122.325.325 0 0 1-.112.45l-.684.397.401.143.328-.25a.33.33 0 0 1 .46.068.327.327 0 0 1-.041.447l.043.016c.172.06.265.25.208.42a.32.32 0 0 1-.414.2zm-4.768-2.903l-.696.606.195.931.895.323.696-.605-.195-.932-.895-.323zm-16.591 3.973l-.04.023a.318.318 0 0 1 .134.424.336.336 0 0 1-.446.148l-.377-.183-.372.21.764.262a.33.33 0 0 1 .177.144c.047.08.06.178.026.27a.334.334 0 0 1-.424.2l-1.301-.448-.093.052.292.324a.32.32 0 0 1-.03.458.338.338 0 0 1-.47-.03l-.379-.421-.452.255v.935l.452.255.38-.422a.338.338 0 0 1 .469-.03.32.32 0 0 1 .03.458l-.292.325.093.052 1.3-.448c.174-.06.364.03.425.199a.318.318 0 0 1-.026.27.33.33 0 0 1-.177.144l-.764.263.372.21.377-.183a.336.336 0 0 1 .446.147.317.317 0 0 1-.135.424l.041.023a.32.32 0 0 1 .122.444.337.337 0 0 1-.454.12l-.04-.023c0 .17-.134.313-.31.324a.33.33 0 0 1-.353-.303l-.027-.41-.371-.21.149.777a.325.325 0 0 1-.266.38.332.332 0 0 1-.388-.26l-.254-1.325-.092-.052-.142.409a.334.334 0 0 1-.421.203.323.323 0 0 1-.208-.412l.184-.532-.459-.258-.825.461v.52l.564.11c.18.035.297.207.26.382a.332.332 0 0 1-.39.255l-.434-.084v.104l1.047.877a.32.32 0 0 1 .037.458.338.338 0 0 1-.47.035l-.614-.514v.419l.35.228a.32.32 0 0 1 .093.45.336.336 0 0 1-.443.1v.045c0 .18-.149.325-.332.325a.329.329 0 0 1-.333-.325v-.045a.336.336 0 0 1-.443-.1.32.32 0 0 1 .093-.45l.35-.228v-.42l-.614.515a.34.34 0 0 1-.47-.035.32.32 0 0 1 .037-.458l1.047-.877v-.104l-.433.084a.332.332 0 0 1-.391-.255.325.325 0 0 1 .26-.382l.564-.11v-.52l-.825-.46-.458.258.184.532a.323.323 0 0 1-.209.412.334.334 0 0 1-.42-.204l-.143-.41-.092.053-.254 1.325a.332.332 0 0 1-.388.26.326.326 0 0 1-.265-.38l.149-.777-.372.21-.027.41a.33.33 0 0 1-.353.304.327.327 0 0 1-.31-.325l-.04.022a.337.337 0 0 1-.454-.119.32.32 0 0 1 .122-.444l.04-.023a.318.318 0 0 1-.134-.424.336.336 0 0 1 .446-.147l.378.183.371-.21-.764-.263a.33.33 0 0 1-.177-.144.318.318 0 0 1-.026-.27.335.335 0 0 1 .424-.199l1.302.448.092-.052-.292-.325a.318.318 0 0 1 .03-.458.338.338 0 0 1 .47.03l.379.422.453-.255v-.935l-.453-.255-.38.422a.338.338 0 0 1-.469.03.32.32 0 0 1-.03-.459l.292-.324-.092-.052-1.302.447a.334.334 0 0 1-.424-.198.318.318 0 0 1 .026-.27.33.33 0 0 1 .177-.145l.764-.262-.371-.21-.378.182a.336.336 0 0 1-.445-.147.318.318 0 0 1 .134-.424l-.041-.023a.32.32 0 0 1-.122-.444.337.337 0 0 1 .454-.119l.04.023c0-.17.134-.314.31-.325a.33.33 0 0 1 .353.303l.027.411.372.21-.15-.778a.326.326 0 0 1 .266-.379.332.332 0 0 1 .388.26l.254 1.325.092.052.142-.41a.334.334 0 0 1 .422-.203.323.323 0 0 1 .208.412l-.184.532.458.258.825-.46v-.52l-.564-.11a.325.325 0 0 1-.26-.383.332.332 0 0 1 .39-.255l.434.085v-.104l-1.047-.877a.32.32 0 0 1-.036-.458.338.338 0 0 1 .468-.036l.615.515v-.42l-.35-.228a.32.32 0 0 1-.093-.45.336.336 0 0 1 .443-.1v-.045c0-.18.15-.325.333-.325a.33.33 0 0 1 .332.325v.047a.334.334 0 0 1 .443.098.32.32 0 0 1-.092.45l-.351.229v.419l.615-.515a.337.337 0 0 1 .469.035.32.32 0 0 1-.037.458l-1.047.878v.104l.433-.085a.33.33 0 0 1 .391.255.325.325 0 0 1-.26.382l-.564.11v.52l.825.461.459-.258-.184-.532a.323.323 0 0 1 .208-.412.334.334 0 0 1 .421.204l.142.41.092-.053.254-1.325a.332.332 0 0 1 .388-.26c.18.033.3.203.266.38l-.15.777.372-.21.027-.41a.33.33 0 0 1 .354-.304c.176.011.31.155.31.325l.04-.022a.337.337 0 0 1 .453.118.32.32 0 0 1-.122.444zm-5.318 1.694v.922l.83.465.832-.465v-.922l-.831-.464-.831.464zm404.397-82.835l-.066-.009a.463.463 0 0 0 .099-.22.462.462 0 0 0-.151-.413.468.468 0 0 0-.66.04l-.393.44-.597-.082.855-.75a.465.465 0 1 0-.617-.697l-1.455 1.279-.148-.02.206-.585a.463.463 0 0 0-.285-.592.468.468 0 0 0-.595.287l-.268.759-.727-.1-.501-1.24.453-.576.721.36c.23.115.51.022.627-.208a.463.463 0 0 0-.206-.623l-.554-.277.092-.118 1.935-.09a.468.468 0 0 0 .446-.487.462.462 0 0 0-.486-.443l-1.136.054.372-.474.59.043a.468.468 0 0 0 .5-.43.46.46 0 0 0-.401-.491l.04-.053a.463.463 0 0 0-.079-.652.468.468 0 0 0-.655.081l-.04.051a.466.466 0 0 0-.875.32l.185.56-.372.473-.222-1.11a.467.467 0 0 0-.915.185l.378 1.892-.092.118-.404-.469a.467.467 0 0 0-.708.608l.525.609-.46.584-1.322-.178-.278-.689.676-.443a.464.464 0 1 0-.512-.776l-.519.34-.056-.137.895-1.715a.463.463 0 0 0-.199-.627.469.469 0 0 0-.63.2l-.524 1.007-.225-.556.334-.488a.463.463 0 0 0-.12-.646.467.467 0 0 0-.63.101l-.025-.06a.466.466 0 0 0-.866.35l.024.06a.467.467 0 0 0-.524.366.463.463 0 0 0 .362.548l.579.119.225.556-1.077-.36a.469.469 0 0 0-.592.294.463.463 0 0 0 .293.588l1.834.613.056.138-.61.116a.464.464 0 1 0 .172.913l.793-.151.278.69-.828 1.045-.735-.101-.046-.803a.467.467 0 0 0-.932.055l.035.618-.148-.02-1.04-1.625a.467.467 0 0 0-.788.503l.61.953-.596-.083-.255-.53a.466.466 0 0 0-.852.377l-.064-.008a.469.469 0 0 0-.528.396.463.463 0 0 0 .396.525l.066.009a.464.464 0 0 0-.098.22.462.462 0 0 0 .15.413c.193.17.488.153.66-.04l.394-.44.596.082-.854.751a.465.465 0 1 0 .616.697l1.456-1.28.148.021-.207.584a.463.463 0 0 0 .285.592.469.469 0 0 0 .595-.286l.269-.76.726.1.501 1.24-.453.576-.72-.36a.468.468 0 0 0-.628.208.463.463 0 0 0 .206.624l.555.276-.093.118-1.935.091a.468.468 0 0 0-.446.487.461.461 0 0 0 .487.443l1.136-.054-.372.473-.59-.043a.468.468 0 0 0-.501.43.461.461 0 0 0 .178.401.46.46 0 0 0 .224.09l-.041.053a.463.463 0 0 0 .079.652.469.469 0 0 0 .655-.081l.04-.051a.466.466 0 0 0 .875-.32l-.184-.56.371-.473.223 1.11a.467.467 0 1 0 .915-.185l-.379-1.892.092-.117.404.468a.467.467 0 0 0 .71-.608l-.526-.608.459-.584 1.322.177.278.69-.675.442a.465.465 0 1 0 .51.776l.52-.34.056.138-.895 1.714a.463.463 0 0 0 .199.627.47.47 0 0 0 .63-.2l.525-1.006.224.555-.334.488a.463.463 0 0 0 .751.545l.024.06a.466.466 0 0 0 .867-.35l-.025-.062a.466.466 0 0 0 .24-.026.463.463 0 0 0-.078-.886l-.579-.118-.224-.556 1.076.359a.468.468 0 0 0 .592-.294.463.463 0 0 0-.292-.588l-1.835-.612-.056-.138.61-.116a.466.466 0 0 0 .373-.543.465.465 0 0 0-.544-.37l-.794.15-.278-.69.828-1.045.736.101.045.803a.467.467 0 1 0 .932-.055l-.035-.618.148.02 1.04 1.624a.467.467 0 0 0 .788-.503l-.61-.952.596.082.256.53a.466.466 0 0 0 .851-.377l.064.01a.469.469 0 0 0 .528-.398.463.463 0 0 0-.396-.524zm-7.837.554l-.494-1.224.834-1.052 1.331.178.494 1.223-.834 1.052-1.33-.177zm-35.256 5.198l-.032.01a.237.237 0 0 0-.006-.123.237.237 0 0 0-.165-.153.24.24 0 0 0-.292.171l-.077.293-.291.1.215-.54a.238.238 0 1 0-.443-.174l-.367.921-.072.025-.041-.314a.237.237 0 0 0-.268-.204.24.24 0 0 0-.205.27l.054.408-.355.123-.516-.449.073-.368.412-.004a.24.24 0 0 0 .238-.24.237.237 0 0 0-.24-.237l-.316.003.014-.075.862-.491a.24.24 0 0 0 .09-.326.237.237 0 0 0-.324-.089l-.506.288.06-.302.278-.117a.24.24 0 0 0 .13-.313.236.236 0 0 0-.298-.13l.006-.034a.237.237 0 0 0-.188-.28.24.24 0 0 0-.28.19l-.006.033a.239.239 0 0 0-.325.35l.214.211-.059.303-.36-.455a.24.24 0 0 0-.375.297l.613.775-.014.075-.293-.12a.239.239 0 0 0-.182.442l.38.156-.073.373-.644.226-.288-.25.206-.358a.238.238 0 1 0-.414-.235l-.158.276-.057-.05.01-.99a.237.237 0 0 0-.237-.24.24.24 0 0 0-.24.237l-.006.581-.232-.201.04-.3a.237.237 0 0 0-.206-.267.239.239 0 0 0-.264.193l-.025-.022a.239.239 0 0 0-.314.361l.025.022a.24.24 0 0 0-.154.288.237.237 0 0 0 .293.167l.291-.081.232.201-.575.087a.24.24 0 0 0-.201.271c.018.13.14.22.27.2l.979-.147.057.05-.25.195a.238.238 0 1 0 .29.377l.327-.253.287.25-.135.669-.359.125-.207-.356a.239.239 0 0 0-.412.242l.159.273-.073.026-.852-.5a.24.24 0 0 0-.242.413l.5.293-.291.1-.24-.182a.239.239 0 0 0-.301.37l-.031.011a.24.24 0 0 0-.149.304c.043.124.178.19.303.147l.032-.011a.238.238 0 0 0 .006.124.237.237 0 0 0 .165.152.24.24 0 0 0 .292-.17l.077-.293.291-.101-.215.54a.238.238 0 1 0 .443.175l.367-.921.072-.026.042.315a.237.237 0 0 0 .268.204.24.24 0 0 0 .204-.27l-.054-.408.355-.124.516.45-.072.368-.413.003a.24.24 0 0 0-.238.24.237.237 0 0 0 .24.237l.317-.002-.015.075-.862.491a.24.24 0 0 0-.09.326.236.236 0 0 0 .325.089l.505-.289-.06.303-.278.117a.24.24 0 0 0-.129.313.236.236 0 0 0 .174.141.24.24 0 0 0 .124-.01l-.007.033a.237.237 0 0 0 .188.279.24.24 0 0 0 .28-.19l.006-.032a.239.239 0 0 0 .325-.35l-.214-.212.06-.302.359.454a.24.24 0 1 0 .375-.297l-.613-.774.015-.076.293.12a.239.239 0 0 0 .182-.442l-.381-.155.073-.373.644-.227.288.25-.205.359a.238.238 0 1 0 .413.235l.158-.276.057.05-.01.99a.237.237 0 0 0 .237.24.24.24 0 0 0 .24-.238l.006-.58.232.2-.04.3a.237.237 0 0 0 .47.075l.025.021a.239.239 0 0 0 .314-.36l-.026-.023a.238.238 0 0 0 .104-.068.237.237 0 0 0-.242-.386l-.291.08-.232-.2.575-.087a.24.24 0 0 0 .202-.272.237.237 0 0 0-.27-.2l-.98.147-.057-.05.25-.194a.239.239 0 0 0 .044-.335.238.238 0 0 0-.333-.042l-.327.253-.288-.25.135-.67.36-.124.206.355a.239.239 0 1 0 .412-.242l-.159-.273.072-.025.853.499a.24.24 0 0 0 .242-.413l-.5-.292.291-.101.24.182a.239.239 0 0 0 .3-.37l.032-.01a.24.24 0 0 0 .149-.304.237.237 0 0 0-.303-.147zm-3.446 2.074l-.51-.444.136-.674.648-.228.51.443-.136.674-.648.229zm21.172 1.348l-.03-.017a.237.237 0 0 0 .09-.086.237.237 0 0 0 .007-.224.24.24 0 0 0-.32-.108l-.272.133-.267-.153.55-.192a.238.238 0 1 0-.16-.45l-.936.329-.066-.038.21-.238a.237.237 0 0 0-.022-.336.24.24 0 0 0-.337.022l-.273.31-.326-.188v-.684l.326-.187.273.31a.24.24 0 0 0 .337.02.237.237 0 0 0 .022-.335l-.21-.237.066-.039.937.328a.24.24 0 0 0 .305-.145.237.237 0 0 0-.146-.304l-.55-.192.267-.154.272.134a.24.24 0 0 0 .32-.108.236.236 0 0 0-.096-.31l.03-.017a.237.237 0 0 0 .087-.325.24.24 0 0 0-.327-.087l-.029.016a.239.239 0 0 0-.477-.016l-.019.301-.267.154.107-.57a.24.24 0 0 0-.47-.088l-.183.971-.066.039-.102-.3a.239.239 0 0 0-.453.152l.132.39-.33.189-.593-.338v-.38l.406-.08a.238.238 0 1 0-.094-.467l-.312.062v-.077l.754-.642a.237.237 0 0 0 .025-.335.24.24 0 0 0-.337-.026l-.442.377v-.307l.252-.168c.11-.072.14-.22.067-.33a.239.239 0 0 0-.319-.072v-.033a.239.239 0 0 0-.478 0v.033a.24.24 0 0 0-.319.073.237.237 0 0 0 .066.33l.253.167v.307l-.443-.377a.24.24 0 0 0-.337.025c-.086.1-.074.25.026.336l.754.642v.077l-.312-.062a.238.238 0 1 0-.094.466l.406.08v.381l-.594.338-.33-.19.133-.389a.239.239 0 0 0-.453-.153l-.102.3-.067-.038-.182-.97a.24.24 0 0 0-.47.087l.107.57-.267-.154-.02-.3a.239.239 0 0 0-.477.015l-.028-.016a.24.24 0 0 0-.327.087.237.237 0 0 0 .087.325l.03.017a.238.238 0 0 0-.09.086.237.237 0 0 0-.007.224.24.24 0 0 0 .32.108l.272-.134.268.154-.55.192a.238.238 0 1 0 .16.45l.935-.329.067.039-.21.237a.237.237 0 0 0 .022.336.24.24 0 0 0 .337-.022l.273-.31.326.188v.684l-.326.187-.273-.31a.24.24 0 0 0-.338-.02.237.237 0 0 0-.021.335l.21.237-.067.039-.936-.328a.24.24 0 0 0-.305.145.236.236 0 0 0 .146.304l.55.192-.268.154-.271-.134a.24.24 0 0 0-.32.108.236.236 0 0 0 .007.224c.02.036.051.065.089.086l-.03.017a.237.237 0 0 0-.087.325.24.24 0 0 0 .327.087l.028-.016a.239.239 0 0 0 .477.016l.02-.301.267-.154-.107.57a.24.24 0 0 0 .47.088l.183-.971.066-.038.102.3a.239.239 0 0 0 .453-.153l-.133-.39.33-.189.594.338v.38l-.406.08a.238.238 0 1 0 .094.467l.312-.062v.077l-.754.642a.237.237 0 0 0-.026.335.24.24 0 0 0 .337.026l.443-.377v.307l-.253.167a.237.237 0 0 0 .253.403v.033a.239.239 0 0 0 .478 0v-.034a.238.238 0 0 0 .12.034.237.237 0 0 0 .133-.436l-.253-.167v-.307l.442.377a.24.24 0 0 0 .337-.025.237.237 0 0 0-.025-.336l-.754-.642v-.077l.312.062a.239.239 0 0 0 .281-.186.238.238 0 0 0-.187-.28l-.406-.08v-.381l.594-.338.33.19-.133.389a.239.239 0 1 0 .453.152l.102-.3.066.039.183.97a.24.24 0 0 0 .47-.088l-.107-.569.267.153.02.301a.239.239 0 0 0 .477-.016l.028.017a.24.24 0 0 0 .327-.087.237.237 0 0 0-.088-.325zm-3.826-1.24v-.676l.598-.34.598.34v.676l-.598.34-.598-.34zm50.299 13.847l-.494-.285.296-.08a.272.272 0 0 0 .193-.335.273.273 0 0 0-.334-.193l-.8.214.634-.419a.273.273 0 0 0-.301-.457l-.879.581-.024-.014.148-.153a.274.274 0 0 0-.006-.387.273.273 0 0 0-.387.006l-.243.252-.471-.271h.345a.274.274 0 0 0 0-.547h-.345l.471-.272.243.252a.273.273 0 1 0 .393-.381l-.148-.153.024-.014.88.58a.273.273 0 1 0 .3-.456l-.634-.42.8.215a.273.273 0 1 0 .141-.528l-.296-.08.494-.285a.274.274 0 0 0-.273-.473l-.494.285.08-.297a.273.273 0 1 0-.529-.141l-.214.8-.046-.76a.273.273 0 1 0-.545.034l.063 1.052-.024.014-.059-.205a.273.273 0 1 0-.525.15l.096.337-.474.273.174-.302a.274.274 0 0 0-.473-.273l-.173.3v-.543l.34-.085a.274.274 0 0 0-.134-.531l-.206.051v-.027l.942-.472a.274.274 0 0 0-.245-.49l-.68.341.586-.586a.274.274 0 0 0-.387-.387l-.216.217v-.57a.274.274 0 1 0-.547 0v.57l-.217-.217a.273.273 0 1 0-.386.387l.585.586-.68-.34a.273.273 0 1 0-.244.49l.942.47v.028l-.207-.051a.274.274 0 0 0-.133.53l.34.086v.543l-.173-.3a.273.273 0 1 0-.474.273l.174.302-.473-.273.096-.337a.274.274 0 1 0-.526-.15l-.058.205-.024-.014.063-1.052a.273.273 0 1 0-.546-.033l-.046.76-.214-.801a.273.273 0 1 0-.528.141l.08.297-.494-.286a.273.273 0 1 0-.273.474l.493.285-.296.08a.272.272 0 0 0-.193.335.273.273 0 0 0 .335.193l.8-.214-.635.42a.273.273 0 0 0 .301.457l.88-.582.023.013-.148.154a.274.274 0 0 0 .393.38l.243-.252.472.273h-.345a.274.274 0 0 0 0 .547h.345l-.472.272-.243-.252a.274.274 0 1 0-.393.38l.148.154-.023.013-.88-.58a.273.273 0 1 0-.3.456l.634.42-.8-.215a.273.273 0 1 0-.142.528l.296.08-.493.285a.274.274 0 0 0 .273.474l.494-.286-.08.297a.273.273 0 1 0 .528.141l.214-.8.046.76a.273.273 0 1 0 .546-.033l-.063-1.053.024-.014.058.206a.273.273 0 1 0 .526-.15l-.096-.338.473-.273-.174.302a.274.274 0 0 0 .474.273l.173-.3v.544l-.34.085a.274.274 0 0 0 .133.53l.207-.051v.027l-.942.472a.274.274 0 0 0 .244.49l.68-.34-.585.585a.274.274 0 0 0 .386.387l.217-.217v.57a.274.274 0 1 0 .547 0v-.57l.216.217a.272.272 0 0 0 .387 0 .274.274 0 0 0 0-.387l-.586-.586.68.34a.273.273 0 0 0 .244-.49l-.941-.47v-.028l.207.052a.273.273 0 0 0 .133-.53l-.34-.086v-.544l.173.3a.273.273 0 1 0 .473-.273l-.174-.302.474.273-.096.337a.273.273 0 1 0 .525.15l.06-.205.023.014-.063 1.053a.273.273 0 1 0 .545.032l.046-.76.214.801a.273.273 0 1 0 .528-.141l-.08-.297.495.286a.273.273 0 1 0 .273-.474z" fill="#FFF"/><path d="M526.71 75.082s-9.526 10.876-23.305 18.383c-9.76 5.317-44.087 16.35-44.087 16.35L457 107.768s32.744-9.218 45.18-15.862C513.274 85.981 525.953 74 525.953 74l.757 1.082zm116.986-40.33s.065.855-14.974 5.334c-10.652 3.172-31.238 5.847-31.238 5.847l-.234-1.278s18.103-1.49 31.649-5.402c12.084-3.49 14.582-5.314 14.582-5.314l.215.813z" fill="#522F25"/><path d="M589.71 48.082s-12.26 11.807-26.04 19.314c-9.76 5.318-37.848 8.847-37.848 8.847v-1.735s26.922-2.957 39.358-9.6C576.274 58.98 588.953 47 588.953 47l.757 1.082z" fill="#522F25"/><g transform="translate(488 25)"><mask id="b" fill="#fff"><use xlink:href="#a"/></mask><use fill="#EAEAEA" transform="rotate(-25 39 43.274)" xlink:href="#a"/><path d="M39.793 45.734l6.528 11.871s-1.134.645-1.775.931c-.696.31-2.245.792-2.245.792s-4.947-12.012-6.876-12.088c3.027-.898 4.368-1.506 4.368-1.506z" fill="#522F25" mask="url(#b)"/></g><g transform="translate(518 30)"><mask id="d" fill="#fff"><use xlink:href="#c"/></mask><use fill="#FFF" transform="rotate(-5 29.807 46.918)" xlink:href="#c"/><path d="M28.793 50.734l6.528 11.871s-1.134.645-1.775.931c-.696.31-2.245.792-2.245.792s-4.947-12.012-6.876-12.088c3.027-.898 4.368-1.506 4.368-1.506z" fill="#522F25" mask="url(#d)"/></g><g transform="translate(570 9)"><mask id="f" fill="#fff"><use xlink:href="#e"/></mask><use fill="#E9E9E9" transform="rotate(-11 22.07 32.295)" xlink:href="#e"/><path d="M20.329 35.233c-1.04.291-1.215 0-1.215 0s1.996 5.025 3.133 7.396c.646 1.347 2.216 3.758 2.216 3.758l1.568-.857c-.495-.84-2.135-2.912-2.951-4.957-1.156-2.893-1.824-5.66-1.824-5.66s.113.028-.927.32z" fill="#522F25" mask="url(#f)"/></g><g transform="translate(586 6)"><mask id="h" fill="#fff"><use xlink:href="#g"/></mask><use fill="#FFF" transform="rotate(-3 22.32 36.472)" xlink:href="#g"/><path d="M19.329 41.233c-1.04.291-1.215 0-1.215 0s1.996 5.025 3.133 7.396c.646 1.347 2.216 3.758 2.216 3.758l1.568-.857c-.495-.84-2.135-2.912-2.951-4.957-1.156-2.893-1.824-5.66-1.824-5.66s.113.028-.927.32z" fill="#522F25" mask="url(#h)"/></g><g transform="translate(637 -1)"><mask id="j" fill="#fff"><use xlink:href="#i"/></mask><use fill="#EFEFEF" transform="rotate(-1 15.482 25.85)" xlink:href="#i"/><path d="M12.787 26.307c-.674.28-.787 0-.787 0s1.293 4.818 2.03 7.09C14.449 34.69 15.466 37 15.466 37l1.016-.821c-.32-.805-1.383-2.792-1.912-4.752C13.82 28.653 13.388 26 13.388 26s.073.027-.6.307z" fill="#522F25" mask="url(#j)"/></g><path d="M546.918 89.063s-15.713 12.124-29.492 19.631c-9.76 5.318-37.918 14.813-37.918 14.813l-2.318-2.046s27.8-8.11 40.236-14.753c11.094-5.927 28.717-19.016 28.717-19.016l.775 1.37zm59.846-35.404s-9.513 9.55-23.292 17.058c-9.76 5.317-33.275 16.218-33.275 16.218l-.78-1.468s22.682-10.63 35.118-17.273c11.094-5.927 21.746-15.73 21.746-15.73l.483 1.195zm44.38-21.301s.241.823-13.538 8.33c-9.76 5.317-29.34 12.215-29.34 12.215l-.494-1.202s17.398-5.22 29.834-11.864c11.095-5.927 13.158-8.23 13.158-8.23l.38.75z" fill="#522F25"/><g transform="translate(380 51)"><path d="M79.111 34.964c2.199-.489-.475-.057 3.565-.08 4.04-.024 5.043 4.52 9.578-.367 4.536-4.888 4.853-5.253 4.853-5.253l5.021 2.678s-5.698 12.495-9.874 14.034c-4.175 1.538-8.122 0-8.122 0l-2.191 8.653-18.283-.634-11.265-5.146s-5.333.298-7.081 3.151c-1.749 2.853-3.384-4.347-2.01-9.833 2.79-4.254 10.348-7.65 13.69-7.65 3.34 0 5.496.447 5.496.447l7.917 2.95c2.81-.683 5.851-2.315 8.706-2.95z" fill="#E43B2E"/><rect fill="#FFF" transform="rotate(26 100.38 29.209)" x="94.881" y="27.209" width="11" height="4" rx="2"/><g transform="translate(55 12)"><path d="M3.082 10.915S1.375 9.205.475 10.46c-.9 1.255-.41 2.978.538 3.437.458.222 1.096.837 1.749 1.498.7.706 1.406.161 1.906 0 .968-.313.728-2.068.427-2.521-.3-.453-2.013-1.959-2.013-1.959z" fill="#FAB381"/><path d="M24.313 7.03c0 2.188 1.338 12.529-5.596 12.529-3.233 0-7.641-.013-10.322-1.689-3.071-1.919-4.199-5.533-4.199-5.533s1.146-6.295 6.325-9.775C13.806.354 18.611 1.428 20.947 1c6.02-1.104 3.366 3.84 3.366 6.03z" fill="#F6C9A8"/><path d="M5.533 12.595L4.25 9l-1.29 6.67s.273 6.05 3.626 8.878c3.934 3.319 8.504 11.533 8.504 11.533s10.529-8.545 11.918-15.224c.79-3.795-.78-7.241-2.171-8.262-1.057-.776-.415 1.118-2.094 1.967-3.888 1.968-1.656-.598-5 0-3.345.6-4.606 2.228-7.445 2.228-2.839 0-4.764-4.195-4.764-4.195z" fill="#FFF"/><circle fill="#313131" cx="13" cy="9" r="1"/><circle fill="#313131" cx="19" cy="8" r="1"/><circle fill="#EF9A99" cx="17.5" cy="14.5" r="2.5"/><path d="M15.674 18.394l5.396-.848s-.557 3.504-2.698 3.504c-2.14 0-2.698-2.656-2.698-2.656z" fill="#404040"/></g><g transform="translate(37)"><path d="M26.718 9.448c3.408-1.915 12.75-1.196 12.75-1.196s-10.023-9.642-17-7.557C15.491 2.78 14.131 8.952 11.046 9.2c-3.085.248-6.813.29-6.813.29l-.457 1.623s6.57 1.184 9.323.592c2.752-.592 4.893.314 5.428 2.005.535 1.691 1.117 4.126 1.117 4.126s3.667-6.472 7.074-8.388z" fill="#E43B2E"/><path d="M39.66 8.112s-8.88-1.354-13.21 1.293c-4.33 2.647-7.695 8.396-7.695 10.74 0 2.343 3.68 5.436 3.68 5.436s1.05-5.528 7.46-8.886c6.412-3.357 13.136-1.44 13.136-1.44s-.304-2.69-.605-3.691c-.405-1.348-2.766-3.452-2.766-3.452z" fill="#FFF"/><circle fill="#FFF" cx="3.5" cy="11.5" r="3.5"/></g><path fill="#5B372E" d="M42.025 127.553l.737 4.039 5.057 4.738.438-4.16z"/><path d="M41.935 127.562s76.78-44.023 78.935-45.644c2.156-1.621 2.252-6.498 0-8.006-2.25-1.508 3.191-6.539 7.594-4.453 4.403 2.085 5.142 3.995 4.909 6.214-.234 2.218-4.089 11.284-4.821 11.207-.732-.077-80.433 45.313-80.433 45.313l-6.184-4.631z" fill="#522F25"/><path d="M130.488 72.102s-4.13.663-3.295 3.582c.833 2.918.316 9.71-1.34 11.12-1.657 1.412-77.613 45.294-77.613 45.294l-.439 4.17s80.471-45.263 82.036-46.947c1.565-1.684 3.532-10.96 3.602-14.704.046-2.481-2.95-2.515-2.95-2.515z" fill="#643C31"/><path d="M71.288 105.376l-5.755 9.513 4.936 3.98 17.317-10.046s-5.363-4.925-7.336-6.282c-1.968-1.354-9.162 2.835-9.162 2.835z" fill="#45271F"/><path fill="#673E33" d="M77.218 106.02l-6.707 12.894-5.176-4.273 4.41-7z"/><path d="M96.338 94.62l-4.236 6.655 3.687 2.817 12.83-6.978s-4.01-3.482-5.482-4.444c-1.469-.96-6.799 1.95-6.799 1.95z" fill="#45271F"/><path fill="#673E33" d="M100.253 94.938l-4.92 8.923-3.869-2.995 3.242-4.84z"/><path fill="#5B372E" d="M12.208 100.611l.811 2.655 4.55 3.078.192-2.746z"/><path d="M12.131 100.618s66.01-29.299 67.788-30.386c1.779-1.088.75-4.757-1.25-5.73-1.998-.974 1.311-4.278 5.183-2.943 3.871 1.335 4.59 2.587 4.488 4.051-.103 1.464-3.012 7.472-3.644 7.428-.632-.044-67.052 30.576-67.052 30.576l-5.513-2.996z" fill="#522F25"/><path d="M85.706 63.283s-3.515.474-2.671 2.39c.844 1.915-.117 6.784-1.477 7.729-1.359.944-63.814 30.15-63.814 30.15l-.193 2.75S84.637 75.76 85.906 74.636c1.27-1.124 2.55-7.254 2.444-9.721-.07-1.636-2.644-1.631-2.644-1.631z" fill="#643C31"/><g transform="translate(0 15)"><path d="M31.293 43.688s-15.437-5.94-10.861 12.166c4.575 18.105 10.697 25.33 14.793 27.946 4.095 2.615 18.173 14.755 36.106 11.17 17.933-3.585 42.615-22.694 42.615-22.694s-12.618 1.351-16.807-10.98c-4.19-12.33 1.734-17.263-12.418-17.263-14.153 0-30.446 2.738-33.643 2.738-3.197 0-19.785-3.084-19.785-3.084z" fill="#9B1B06"/><g transform="translate(0 27)"><mask id="l" fill="#fff"><use xlink:href="#k"/></mask><use fill="#BE2006" xlink:href="#k"/><path d="M54.114 23.925c-2.626 6.5-3.235 11.361 0 13.825 3.236 2.464 9.836 4.277 11.92-2.464 2.084-6.741 4.085-18.071 12.64-16.833 8.556 1.238 8.47 2.306 10.888 7.439 2.417 5.132 6.88 21.641 11.887 23.011 5.007 1.37 14.122-2.827 14.122-5.827s1.763-5.417-2.932-5.326c-4.696.09-5.221-1.13-7.534-2.464-2.312-1.334-10.294-22.04-21.202-23.619-10.908-1.58-12.669-2.032-17.869 0-5.2 2.032-9.294 5.757-11.92 12.258z" fill="#8B1E0C" mask="url(#l)"/></g><path d="M104.324 14.95L96.88 11.2s-.298-3.228.37-4.434c.669-1.205 1.754-1.597 2.22-1.339.467.259.947 1.218.947 1.218s.74-.92 1.455-2.21c.716-1.292 3.066-2.024 4.812-1.056 1.746.967 1.818 4.036 1.03 5.456-.786 1.419-3.314 6.156-3.314 6.156M45.84 40.897c-1.965-2.459-2.191-4.796-2.191-4.796l7.505-4.014s3.484 1.672 4.478 3.09c.993 1.42.974 2.767.52 3.084-.452.317-1.642.22-1.642.22s.85 1.164 1.643 2.732c.792 1.568 0 3.126-2.248 4.38-2.248 1.255-6.1-2.236-8.065-4.696z" fill="#FACF00"/><rect fill="#FFF" transform="rotate(-30 46.817 33.08)" x="39.357" y="30.367" width="14.92" height="5.426" rx="2.713"/></g></g></g></svg>