<svg width="159" height="82" viewBox="0 0 159 82" xmlns="http://www.w3.org/2000/svg"><title>fly leaves</title><g fill="none" fill-rule="evenodd"><path d="M117.676 76.618c-.527-.67-1.332-1.496-2.552-2.393-3.042-2.234-7.124-.73-7.124-.73s.052 4.972 2.73 6.712c2.677 1.74 5.025 1.943 5.504 1.633-.898-1.762-.769-2.99-.769-2.99s2.761-.488 2.984-.158c.222.33.013-1.074-.773-2.074zm31.232-25.047c.56.641 1.408 1.425 2.674 2.257 3.155 2.072 7.152.355 7.152.355s-.313-4.962-3.077-6.559c-2.765-1.597-5.12-1.677-5.582-1.342.988 1.712.923 2.945.923 2.945s-2.73.632-2.97.314c-.24-.317.042 1.073.88 2.03zM129.037 8.29c-.8.294-1.836.804-3.065 1.687-3.065 2.203-2.895 6.55-2.895 6.55s4.744 1.486 7.226-.522c2.481-2.009 3.4-4.18 3.254-4.73-1.954.309-3.081-.194-3.081-.194s.39-2.776.772-2.886c.382-.11-1.018-.345-2.211.094zm-33.01-2.796c.28-.36.605-.886.913-1.635.766-1.87-.544-3.795-.544-3.795s-2.575.671-3.132 2.287c-.557 1.616-.358 2.862-.135 3.07.799-.694 1.453-.786 1.453-.786s.61 1.37.469 1.529c-.143.158.56-.132.976-.67zM20.616 32.526c-.44-.116-1.051-.21-1.862-.2-2.02.024-3.28 1.983-3.28 1.983s1.624 2.108 3.329 1.99c1.705-.12 2.774-.79 2.879-1.076-.952-.464-1.292-1.03-1.292-1.03s1.023-1.098 1.225-1.03c.201.07-.34-.463-.999-.637z" fill="#F7BED8"/><path d="M9.328 51.965c.042-.62.009-1.462-.215-2.543-.559-2.697-3.507-3.874-3.507-3.874S3.207 48.269 3.81 50.52c.602 2.25 1.776 3.507 2.187 3.572.374-1.393 1.043-1.996 1.043-1.996s1.735 1.083 1.695 1.371c-.04.287.532-.576.593-1.502z" fill="#EF70A8"/><path d="M105.693 46.632c-.449.724-.95 1.763-1.376 3.217-1.06 3.623 1.751 6.943 1.751 6.943s4.654-1.75 5.373-4.86c.719-3.11.107-5.387-.348-5.73-1.349 1.446-2.547 1.744-2.547 1.744s-1.402-2.427-1.169-2.75c.234-.321-1.014.355-1.684 1.436zM88.926 29.175c-.475.01-1.113.09-1.922.333-2.016.605-2.715 2.928-2.715 2.928s2.231 1.645 3.904 1.036c1.673-.608 2.552-1.586 2.575-1.903-1.086-.192-1.59-.661-1.59-.661s.71-1.393.931-1.382c.222.012-.474-.366-1.183-.351zm-27.952-9.14a3.64 3.64 0 0 0-.156.966c-.043 1.056.945 1.768.945 1.768s1.146-.79 1.13-1.684c-.015-.893-.335-1.47-.482-1.533-.269.484-.574.646-.574.646s-.545-.564-.503-.667c.041-.103-.252.165-.36.504z" fill="#ED77AA"/><path d="M58.815 79.31c-.27-.336-.683-.75-1.309-1.197-1.56-1.118-3.652-.365-3.652-.365s.027 2.486 1.4 3.355c1.372.87 2.576.972 2.821.817-.46-.881-.393-1.495-.393-1.495s1.415-.244 1.529-.079c.114.165.007-.537-.396-1.037zm16.011-12.521c.287.32.72.711 1.369 1.126 1.616 1.034 3.666.173 3.666.173s-.157-2.48-1.573-3.277c-1.416-.797-2.624-.836-2.86-.668.505.856.47 1.472.47 1.472s-1.4.318-1.522.159c-.123-.159.02.537.45 1.015zM64.65 45.092c-.402.153-.923.418-1.543.874-1.544 1.138-1.475 3.36-1.475 3.36s2.372.743 3.623-.293c1.252-1.037 1.72-2.15 1.649-2.431-.98.165-1.544-.088-1.544-.088s.206-1.421.398-1.479c.192-.057-.509-.172-1.109.057zm-16.94-1.316a3.52 3.52 0 0 0 .453-.834c.378-.955-.284-1.945-.284-1.945s-1.287.336-1.561 1.162c-.274.825-.171 1.464-.059 1.571.398-.353.726-.398.726-.398s.31.703.239.784c-.071.08.28-.066.487-.34zM9.06 57.245a3.533 3.533 0 0 0-.945-.09c-1.026.025-1.679 1.02-1.679 1.02s.813 1.055 1.68.984c.867-.07 1.414-.414 1.469-.56-.48-.228-.65-.512-.65-.512s.526-.56.628-.526c.102.034-.17-.232-.503-.316z" fill="#F7BED8"/><path d="M3.264 67.01a4.816 4.816 0 0 0-.125-1.288c-.3-1.367-1.802-1.98-1.802-1.98s-1.2 1.36-.88 2.502c.32 1.142.923 1.785 1.132 1.82.18-.702.516-1.002.516-1.002s.886.558.868.704c-.019.145.266-.288.291-.756z" fill="#EF70A8"/><path d="M52.682 64.264c-.222.368-.47.897-.677 1.638-.516 1.848.906 3.557.906 3.557s2.327-.876 2.675-2.463c.348-1.587.032-2.753-.198-2.93-.67.733-1.27.88-1.27.88s-.713-1.246-.597-1.41c.116-.163-.507.178-.839.728zm-8.601-8.702a3.68 3.68 0 0 0-.972.182c-1.02.32-1.388 1.504-1.388 1.504s1.116.822 1.964.502c.848-.319 1.297-.82 1.31-.982-.546-.09-.797-.326-.797-.326s.366-.713.478-.708c.111.004-.237-.183-.595-.172zm-14.333-4.558a1.847 1.847 0 0 0-.072.491c-.016.537.487.905.487.905s.572-.395.56-.85c-.014-.455-.179-.75-.253-.783-.132.245-.285.326-.285.326s-.278-.29-.258-.343c.02-.052-.126.083-.179.254z" fill="#ED77AA"/></g></svg>