<svg width="327" height="252" viewBox="0 0 327 252" xmlns="http://www.w3.org/2000/svg"><g fill="none" fill-rule="evenodd"><g transform="translate(6 44)"><ellipse fill="#2D2D2D" opacity=".23" cx="156.5" cy="203.5" rx="56.5" ry="4.5"/><path d="M122.516 116.507l8.474 18.491 9.918 6.417-2.08 38.639-7.407 13.765-17.743 8.62 21.426-.835-7.064 5.283 27.226-6.012s6.815 2.119 11.892 3.343c5.078 1.224 11.102 2.2 11.102 2.2l-7.759-6.743 28.238 1.929-12.539-5.418s-5.474-1.07-10.62-9.647c-5.146-8.576-6.307-18.564-6.307-18.564l-1.572-39.14 11.876-14.849 15.854-7.071 8.658-10.972 7.358-17.02-5.12-1.923-10.395 21.127-11.9 6.968-1.414-20.606-3.47-.497.671 13.205-10.39-16.157-4.745-.032 12.035 22.813-18.786 16.286-3.843-21.195 4.403-15.25-6.567-2.085-5.077 14.655-2.435.074-7.062-18.523-2.932.504 5.9 17.832-.123 7.994 3.554 26.114-8.507-9.359-.14-12.163 1.38-13.774-5.892-15.836-3.36.624 4.189 15.708-4.967 12.483s-19.336-19.835-22.696-21.628C100.398 84.49 98 91.194 98 91.194l24.516 25.313z" fill="#845031"/><path d="M129.197 206.768l25.883-12.808 23.128 12.514s-7.775-1.503-11.495-2.428c-3.989-.991-11.633-3.322-11.633-3.322l-25.883 6.044z" fill="#7C4C2E"/><path fill="#784A2E" d="M111.635 99.512l12.246 13.031 8.52 18.672L146.5 141.93l-2.197 46.311-11.903 9.596-18.358 4.662 16.888-9.216 7.937-13.3 2.305-38.053-10.006-6.62-8.436-19.279-14.76-14.337"/><path fill="#754A2F" d="M144.405 101.157l2.104 42.605-4.456-4.59-3.286-42.145 6.174.142z"/><path d="M181.033 109.321s-11.951 11.714-13.272 13.633c-1.321 1.92 0 5.652 0 5.652l11.8-14.476 7.677-3.708-6.205-1.1z" fill="#724A30"/><path d="M90.833 98.24c4.15 3.507 3.749 5.568 9.27 3.909 5.52-1.66 12.471-4.942 17.083-2.471 4.611 2.47 9.82 1.926 13.716-1.517 3.896-3.444 3.275 3.988 8.268 3.988 4.994 0 9.527-4.052 15.944-4.052 6.417 0 9.928-1.458 14.533.061 4.605 1.52 11.371 4.843 11.371 4.843s3.264 5.907 13.543 2.953c10.28-2.953 13.243-3.983 13.243-5.92 0-1.937-3.518-24.862-3.518-24.862s11.45-12.851 3.518-15.662c-7.933-2.81-7.983-9.184-19.611-13.84-11.628-4.655-15.34-.024-21.94 6.066-6.602 6.09 2.584-9.155-16.952-8.727-19.536.428-17.99 4.19-25.053 11.296-7.062 7.107-8.01 10.95-10.822 13.326-2.81 2.376-20.434 14.786-23.124 14.786-2.69 0-3.62 12.315.531 15.823z" fill="#DF75A4"/><path d="M3.766 93.121s-6.239 9.152-1.473 13.299c4.766 4.146 12.72 4.588 16.314 7.351 3.594 2.764 5.323 5.9 8.92 5.9h9.827c2.033 0 5.933 6.456 17.263 7.01 12.049.59 29.221-2.992 32.36-2.992 3.802 0 8.127-1.04 8.127-.43 0 .612 10.71.249 14.447-3.587 3.736-3.836 6.094-13.295 6.094-13.295l4.103-6.79 6.756-3.247 5.213-9.746-10.793-18.446 5.637-5.046s4.224-7.245 7.412-7.245c3.187 0 9.709 2.696 16.54 2.696 6.833 0 8.407 4.549 21.882 2.164 13.474-2.385 18.216 2.385 20.718 2.385 2.502 0 15.143-2.106 17.881-2.385 2.738-.28 18.371-4.262 24.373-7.12 6.002-2.857 5.57-3.76 12.608-3.76 7.037 0 8.802 1.085 11.79 1.085 2.989 0 8.61-3.707 8.61-3.707l2.516-9.863s-2.635-3.674-4.963-3.674c-2.328 0-13.782-6.655-15.867-6.655-2.086 0-18.444-8.712-18.444-8.712S108.15.326 105.74.326c-2.41 0-18.607 14.436-22.3 14.436-3.694 0-5.317 1.9-15.215 1.9-9.899 0-10.926-2.93-20.899-.64-9.972 2.289-12.453 3.19-11.213 8.763 1.24 5.572 2.416 10.53 1.828 12.791-.587 2.262-1.82 1.322-3.898 5.48-2.078 4.159-4.98 5.885-6.516 8.214-1.535 2.328-2.49 5.234-6.793 13.72-4.302 8.487-16.968 28.131-16.968 28.131z" fill="#EF84B3"/><path d="M170 87.586s-14.635 15.422-8.316 18.506c6.318 3.084 12.558 4.582 19.209 4.582 6.65 0 8.681 4.01 13.476 6.512 4.795 2.501 14.547-4.479 24.871-4.479 10.324 0 5.305 4.273 22.442 2.137 17.136-2.137 20.093-7.426 20.093-7.426s28.123-11.64 21.127-16.322c-6.996-4.682-15.894-7.25-23.298-7.25-7.405 0-22.62-3.809-35.555-6.715-12.936-2.906-29.664 2.531-36.41 4.623-6.746 2.092-14.168 5.832-17.639 5.832" fill="#F084B3"/></g><path d="M127.65 101.505c0 5.238-.41 7.218-.205 13.06.205 5.842 2.1 4.49 6.458 7.63 4.36 3.142 7.413 10.854 1.584 14.757-5.828 3.902-14.654 3.426-18.751 3.426-4.098 0-14.82-3.399-14.82 1.236s-3.063 6.685-5.587 6.685c-2.523 0-5.267 8.01-13.56 8.01s-13.176-12.607-21.074-10.308c-7.899 2.298-18.917 3.125-22.135-.631-3.219-3.756-8.56.261-11.444 1.595-2.882 1.334-9.816-5.46-9.816-5.46s-3.494.171-6.08.171-15.803-10.144-11.004-14.812c4.799-4.668-1.2-7.772-1.2-10.035 0-2.264-1.052-9.617 13.524-9.617 4.961-9.043 8.086-13.704 15.08-13.704s8.31 3.936 8.31 3.936 4.708-6.975 10.321-5.455c5.613 1.52 13.36-9.072 13.36-9.072s-16.006-5.664-16.006-8.97c0-3.304-5.608-5.368-5.608-5.368s-1.25-10.502 3.502-10.502 3.406-5.578 7.26-8.766c3.853-3.187 6.997-3.068 13.295-3.068s6.31-2.62 9.79-2.62c3.481 0 8.847 5.622 8.847 5.622l5.255 1.35-1.293-5.274-1.439-6.9 5.346-5.04 6.62-2.289s1.884-1.336 3.81-1.336c1.925 0 3.205-2.851 3.205-2.851s-1.526-14.223 6.007-14.223c7.534 0 11.735 4.778 11.735 4.778s4.267-4.29 8.617-4.29c4.35 0 1.625-2.521 5.287-4.896s7.793-1.465 7.793-1.465-.281-5.094 5.543-5.094 8.976 1.118 11.947.559c2.97-.559 5.227-4.176 7.863-.953 2.637 3.223 5.776 5.432 5.776 8.396 0 2.965 5.506 3.967 5.506 3.967s5.056-4.513 8.5-.369c3.443 4.145 8.488.32 8.488.32s8.982-1.562 8.982 5.854 1.985 7.54 6.426 10.717c4.442 3.175 4.662 11.283-2.183 11.283-6.846 0-2.768 8.3-5.098 8.703-2.33.402 8.209-1.437 14.14 1.357 5.932 2.795 9.096 6.454 9.096 6.454s2.992-3.05 5.723-3.05c2.73 0 6.715-2.913 6.715-2.913l6.328-.15s1.453-.952 5.45 1.056c3.995 2.008 4.745 2.172 7.523 2.172 2.777 0 7.8 1.588 7.8 2.273 0 .686 4.616 6.979 4.616 6.979s1.85 5.062 1.85 7.32 2.275 8.613-.788 11.315c-3.062 2.7-11.984 11.443-15.344 7.458-3.359-3.984-2.623-5.001-8.78-5.001-6.16 0-10.612 1.968-12.991 5.007-2.38 3.04-3.647 4.268-7.916 4.268-4.27 0-11.31-1.897-11.31-1.897s-3.321-2.877-11.78-2.877-18.563-3.29-18.563-3.29l-4.04-3.112s-7.178.647-7.764.647c-.586 0-3.045.263-4.703-.514-1.659-.777-8.264-7.594-8.893-7.594-.629 0-1.598 1.16-12.566 1.608-10.968.447-14.973-3.928-17.858-.694-2.884 3.235-6.73 1.446-10.162 7.198-3.431 5.751-5.517 12.626-7.53 15.003-2.01 2.377 15.013-2.949 15.013 2.29z" fill="#FFB7D6"/><path d="M157.79 129.102s-2.741 7.328 1.987 10.443c4.729 3.116 7.397 3.78 10.988 3.78 3.592 0 1.936 5.956 7.976 5.956s3.593-.312 9.362-3.135c5.77-2.822 12.608-1.765 15.256-.882 2.649.882 2.377.707 6.205.353 3.828-.353 15.514-3.142 15.514-3.142s4.847 1.063 8.81 0c3.983-1.07 7.361-2.092 7.361-2.092s2.128.185 6.774 2.092c4.647 1.906 4.307-.87 9.19 2.328 4.882 3.197 4.502 3.703 8.974 3.703s5.496 3.415 12.858 1.793c7.361-1.622 4.882-1.309 8.392-2.73 2.713-1.1 3.564-2.114 6.727-3.387 6.252-2.517 13.738 1.273 13.738 1.273s5.573 1.482 10.268-3.608 2.863-9.867 2.863-12.745c0-2.88 4.701-12.442 4.701-12.442s3.012-8.295-5.367-8.295-8.749-2.74-11.3-5.173c-2.55-2.434-2.432-5.378-7.661-6.204-5.229-.825.908-5.713-8.834-5.713-9.742 0-15.268 1.748-15.268 1.748s-8.485-2.914-16.014-1.748c-7.53 1.166-9.76 4.24-11.482 4.24-1.72 0-5.493-5.049-11.047-3.143-5.554 1.905-8.666 7.589-8.666 7.589s-3.14 3.025-5.017 3.23c-2.336.257-7.62-1.846-7.62-1.846s-4.803-.64-9.45 3.587c-4.649 4.228-6.446 6.834-10.483 6.834-4.036 0-7.42-2.606-9.422-2.606-2.002 0-7.25-2.187-15.53 3.917-3.812 2.811-9.812 4.336-11.996 7.724-2.558 3.97-2.786 8.3-2.786 8.3z" fill="#FFB7D6"/></g></svg>