<svg width="13" height="25" viewBox="0 0 13 25" xmlns="http://www.w3.org/2000/svg"><title>Combined Shape</title><path d="M6.565 24.445c-.134.008-.28.01-.427.01H4.152S2.814 12.125.605 9.066c-1.878-2.598.943-.78 3.988 9.163-.59-5.757-1.622-13.834-2.988-16.644-1.982-4.077 1.272-.84 4.498 16.2 3.226-17.04 6.48-20.277 4.498-16.2-1.365 2.81-2.398 10.887-2.988 16.644 3.045-9.944 5.866-11.761 3.988-9.163-2.209 3.059-3.547 15.39-3.547 15.39h-.986c-.175 0-.348-.003-.503-.011zm.17-3.13c-.21-1.237-.42-2.413-.632-3.53.841 6.625.664 6.648.462 6.66z" fill="#306C2F" fill-rule="evenodd"/></svg>