<svg width="64" height="61" viewBox="0 0 64 61" xmlns="http://www.w3.org/2000/svg"><title>1480530789_17.Brush</title><path d="M30.107 43.64c-.068.054-.12.12-.182.182-1.545 1.546-3.642 2.171-5.657 1.933.648 2.717-.035 5.7-2.102 7.823 0 0-10.34 12.812-21.8 4.74 0 0 6.18-1.735 6.718-6.731 0 0-.825-5.034 3.71-9.7a7.883 7.883 0 0 1 7.488-2.198c-.21-1.99.416-4.051 1.94-5.576.06-.062.128-.115.19-.174-.009-.01 24.565-24.622 36.72-32.791a4.107 4.107 0 0 1 5.3.427 4.11 4.11 0 0 1 .427 5.305c-8.163 12.16-32.752 36.76-32.752 36.76zm-13.613-1.487c-1.42 0-2.762.574-3.773 1.614-3.486 3.585-2.963 7.693-2.95 7.821-.299 2.784-1.873 5.155-3.515 6.58a9.79 9.79 0 0 0 1.767.16c6.531 0 12.034-6.42 12.085-6.48.001 0 3.766-4.46.144-8.09-1.02-1.022-2.343-1.605-3.758-1.605zm5.672-.28a4.208 4.208 0 0 0 2.95 1.227c1.098 0 2.09-.45 2.841-1.204l2.137-2.163.377-.386-5.77-5.783c-.127.123-.283.273-.396.385l-2.14 2.117c-.776.775-1.173 1.804-1.173 2.9 0 1.097.397 2.13 1.174 2.906zm37.371-38.74c-.291 0-.57.089-.873.306-8.55 5.746-24.749 21.173-32.039 28.249l5.719 5.73c7.067-7.297 22.5-23.537 28.28-32.146a1.344 1.344 0 0 0-1.087-2.139z" fill="#FFF" fill-rule="evenodd"/></svg>