<svg width="115" height="304" viewBox="0 0 115 304" xmlns="http://www.w3.org/2000/svg"><title>lamp</title><g fill="none" fill-rule="evenodd"><g transform="translate(27)"><path d="M26.012 6H26v19.746h10V6h-.012c.008-.11.012-.22.012-.33C36 3.09 33.761 1 31 1s-5 2.09-5 4.67c0 .11.004.22.012.33z" fill="#C72727"/><path fill="#831C1C" d="M30 5h2v14h-2z"/><path d="M36 5.58a5 5 0 0 0-10 0c2.994.043 7.116.009 10 0zM.104 32.48l25.892-14.92s3.764.58 5.355.58c1.564 0 4.667-.58 4.667-.58l26.955 15.184-62.869-.265z" fill="#FFF"/><path fill="#831C1C" d="M26 14h10v2H26zm0-4h10v2H26zm0-4h10v2H26z"/><path d="M53.5 33.5v28.071M15.5 33.5v28.071m23-28.071v28.071" stroke="#741818" stroke-linecap="square"/><path d="M31.77 46.942c17.247 0 31.245-3.727 31.245-7.953 0-4.226-13.998-7.35-31.246-7.35C14.522 31.638 0 34.762 0 38.988s14.522 7.953 31.77 7.953z" fill="#C6C6C6"/><rect fill="#454545" x="23" y="45" width="21" height="21" rx="5"/><circle fill="#FFF" cx="30" cy="53" r="4"/><path d="M1 36.5v28.071" stroke="#C72727" stroke-width="2" stroke-linecap="square"/><path stroke="#931D1D" stroke-width="2" stroke-linecap="square" d="M14 33v28.071M37 32.5v28.071M55 33.5v28.071"/><path d="M62.5 37.08v28.071" stroke="#C72727" stroke-linecap="square"/><path d="M62.001 37.057L62 65.151" stroke="#931D1D" stroke-width="2" stroke-linecap="square"/><path fill="#A52323" d="M0 62.58v15l43 1 20 3v-17l-8-4-18-2-23 1z"/><path fill="#C23232" d="M.007 62.562l13.583-2.887-.25 17.06H.007z"/><path fill="#A52323" d="M13.711 28.319L.044 32.385v6.218l13.667-3.466 24.266-1.473 17.321 2.159 7.711 2.831v-6.076l-7.71-3.327-17.322-2.29"/><path fill="#C23232" d="M.134 32.33v6.313l13.456-3.559V28.35z"/></g><path d="M3.812 87.696c0 2.185 6.436 4.4 10.483 6.864 5.541 3.374 7.467 4.638 8.244 7.295 1.418 4.847-3.087 50.71-3.087 50.71L.642 296.06l30.631 7.514 73.868-4.094 9.513-6.807-14.969-141.048s-3.505-40.963-3.505-45.597c0-4.633 2.737-9.832 5.904-11.467 3.167-1.635 10.748-5.44 10.748-6.864 0-2.191-14.034-7.82-14.034-7.82l-9.664-3.465H68.517l-42.43-.513S3.811 86.19 3.811 87.696z" fill="#FFF"/><path fill="#E6E6E6" d="M26.09 75.99l13.274 15.326-7.975 212.214h36.824l37.212-3.876L90.695 98.14l7.791-18.306-9.476-3.844-24.938-1.08z"/><path fill="#EBEBEB" d="M63.856 75.062L60.891 88.29l6.629 215.07H31.153l5.443-215.07-9.856-12.143z"/><path fill="#818181" d="M74.783 133.912h11.27v27h-11.27zm-31.931 133.19h16.904v9.38H42.852zM82 203h9.391v27H82z"/></g></svg>