<svg width="378" height="128" viewBox="0 0 378 128" xmlns="http://www.w3.org/2000/svg" xmlns:xlink="http://www.w3.org/1999/xlink"><title>stone</title><defs><path d="M.844 128.816s100.71-64.936 131.258-85.972c26.58-18.304 55.26-37.256 60.38-39.028 7.76-2.686 144.37-3.79 144.37-3.79l67 13.493v115.297H.844z" id="a"/><path d="M.313 76.799s36.007-59.112 53.17-64.58c17.161-5.469 59.655-14.759 70.26-10.84 10.606 3.918 48.586 73.037 48.586 73.037L.312 76.799z" id="c"/><path d="M.17 42.375s-.758-27.697 5.353-30.09C11.635 9.893 53.503.822 63.125.822c9.621 0 59.327 12.96 62.742 15.963 3.415 3.004 14.327 25.59 14.327 25.59H.17z" id="e"/><path d="M.222 48.521S25.782 6.557 37.966 2.674C50.149-1.208 79.659 1.93 87.187 4.71c7.53 2.782 35.146 42.12 35.146 42.12L.222 48.52z" id="g"/><path d="M.765 29.817S9.525 6.61 13.862 4.912C18.201 3.213 25.982.584 32.811.584c6.83 0 40.621 6.047 40.621 10.5s7.243 18.733 7.243 18.733H.765z" id="i"/></defs><g fill="none" fill-rule="evenodd"><mask id="b" fill="#fff"><use xlink:href="#a"/></mask><use fill="#CFCFCF" xlink:href="#a"/><path d="M252.53 31.695s21.016-2.376 43.113-2.376c22.096 0 49.826 2.376 49.826 2.376l10.736 97.944H171.471l81.058-97.944z" fill="#A7A7A7" mask="url(#b)"/><path d="M191.849 3.99s53.76 17.743 60.672 27.679c2.039 9.09-48.751 100.991-48.751 100.991l-39.448-23.781s-102.326-9.46-102.119-10.2C71.67 65.004 191.85 3.99 191.85 3.99z" fill="#B3B2B2" mask="url(#b)"/><path d="M380.486 25.51l25.36 106.213h-50.864s-6.377-63.567-9.626-100.045c-.022-.255 35.13-6.168 35.13-6.168z" fill="#BBB" mask="url(#b)"/><g transform="translate(88 52)"><mask id="d" fill="#fff"><use xlink:href="#c"/></mask><use fill="#D8D8D8" xlink:href="#c"/><path d="M87.427 30.252s10.258-5.395 18.885-6.316c8.628-.922 17.659 2.412 17.659 2.412l3.742 49.841-34.61-1.271s-.813-14.993-1.566-23.49c-.305-3.44-.834-10.109-1.815-14.217-.883-3.696-2.295-6.959-2.295-6.959z" fill="#D0D0D0" mask="url(#d)"/><path d="M52.982 12.979c3.024 0 32.325 13.19 35.211 18.855C91.08 37.498 93.67 77.52 93.67 77.52L-9.117 79.87l48.246-68.974s10.83 2.083 13.853 2.083z" fill="#C7C7C7" mask="url(#d)"/><path fill="#C3C3C3" mask="url(#d)" d="M123.708 26.576l7.998-6.046 20.65 22.57L127.51 73z"/></g><g transform="translate(216 86)"><mask id="f" fill="#fff"><use xlink:href="#e"/></mask><use fill="#D4D4D4" xlink:href="#e"/><path fill="#BBB" mask="url(#f)" d="M91.672 21.842l13.469-4.697 16.984 2.472L136.199 42l-46.999.854z"/><path d="M0 41.65s6.3-20.792 8.343-22.38c2.042-1.59 43.372-7.235 47.775-7.235 4.403 0 33.381 8.16 36.508 10.222 3.127 2.061 0 22.883 0 22.883L0 41.65z" fill="#C9C9C9" mask="url(#f)"/></g><g transform="translate(0 79.557)"><mask id="h" fill="#fff"><use xlink:href="#g"/></mask><use fill="#D8D8D8" xlink:href="#g"/><path d="M53.963 17.788s14.633-6.755 20.758-7.41c6.124-.654 13.283 2.327 13.283 2.327l2.656 35.384H51.71s2.95-22.375 2.254-25.29c-.627-2.625 0-5.01 0-5.01z" fill="#D0D0D0" mask="url(#h)"/><path d="M37.611 3.214c2.146 0 14.033 10.464 16.082 14.485 2.05 4.02 4.092 33.002 4.092 33.002H-6.472L27.777 1.736s7.688 1.478 9.834 1.478z" fill="#C9C9C9" mask="url(#h)"/><path fill="#C3C3C3" mask="url(#h)" d="M87.817 12.867l5.678-4.292 27.368 30.868-30.348 6.381z"/></g><g transform="translate(102.864 95.565)"><mask id="j" fill="#fff"><use xlink:href="#i"/></mask><use fill="#D4D4D4" xlink:href="#i"/><path fill="#BBB" mask="url(#j)" d="M53.076 15.506l9.56-3.335 12.058 1.756 9.99 15.89-33.363.606z"/><path d="M-12 29.569s4.473-14.761 5.922-15.89c1.45-1.128 30.79-5.136 33.915-5.136 3.126 0 23.696 5.793 25.916 7.257 2.22 1.463 1.877 8.752 1.877 8.752l-1.877 5.124L-12 29.57z" fill="#C9C9C9" mask="url(#j)"/></g></g></svg>