<svg width="84" height="46" viewBox="0 0 84 46" xmlns="http://www.w3.org/2000/svg" xmlns:xlink="http://www.w3.org/1999/xlink"><title>boat</title><defs><path d="M.985 5.264s11.668 15.78 15.407 17.608C20.13 24.7 51.605 37.506 58.27 37.506c3.44-5.832 12.541-13.898 12.541-13.898S28.65 3.631 14.142.888C-.364-1.855.986 5.264.986 5.264z" id="a"/></defs><g fill="none" fill-rule="evenodd"><path d="M.875 26.364c4.768-6.137 25.744-5.681 29.884-5.25 4.14.43 36.126 5.392 41.778 8.924-7.855 6.76-13.936 15.417-13.936 15.417s-19.994-6.868-29.878-10.694C21.71 32.046 2.841 27.933.875 26.364z" fill="#65A7ED"/><g transform="rotate(-9 17.805 -59.108)"><mask id="b" fill="#fff"><use xlink:href="#a"/></mask><use fill="#FFF" xlink:href="#a"/><path d="M1.933 9.756S24.72 23.99 37.121 23.99c12.403 0 24.327-2.636 24.327-2.636s-5.384 9.934-5.384 13.587c0 3.653-.796 2.879-14.897 1.44-14.101-1.44-34.559-13.074-34.559-13.074L1.933 9.756z" fill="#ECECEC" opacity=".339" mask="url(#b)" transform="rotate(6 31.69 23.668)"/></g><path d="M11.052 6.896s7.843 4.597 11.813 6.272c3.971 1.676 14.54 6.434 28.23 6.425 13.692-.009 31.878-5.503 31.878-5.503s-3.895-4.305-9.828-5.264C67.212 7.866 29.363 1.15 25.982.682c-3.38-.468-6.378 0-6.378 0s-4.409.07-7.003 2.212c-2.593 2.142-1.55 4.002-1.55 4.002z" fill="#CACACA"/><path d="M24.956 3.782s23.236 3.884 24.74 4.237c1.75.41 12.388 2.436 17.148 4.022 5.534 1.845 8.678 2.902 8.036 3.004-.616.098-11.95 2.64-20.45 3.239-7.972.562-13.063-.712-16.285-1.282-6.658-1.176-18.37-6.608-22.255-8.647 1.485-1.704 2.363-2.282 3.988-3.116 1.626-.833 5.078-1.457 5.078-1.457z" fill="#660B0B"/><path fill="#FFF" d="M24.24 12.333l11.039-6.874 2.998.536-11.319 7.442m8.837 3.013l10.25-9.09 3.213.526L39.04 17.21s-1.235-.209-1.853-.354a25.77 25.77 0 0 1-1.39-.407zm13.71 2.01l10.369-8.265 3.365.713-9.045 7.435s-1.705.1-2.35.117c-.917.023-2.339 0-2.339 0z"/></g></svg>